<?xml version="1.0" encoding="UTF-8" standalone="no"?>
<svg
   width="81mm"
   height="27mm"
   viewBox="0 0 81 27"
   version="1.1"
   id="svg8"
   inkscape:version="1.1 (c68e22c387, 2021-05-23)"
   sodipodi:docname="logo.svg"
   inkscape:export-filename="logo.png"
   inkscape:export-xdpi="75.260002"
   inkscape:export-ydpi="75.260002"
   xmlns:inkscape="http://www.inkscape.org/namespaces/inkscape"
   xmlns:sodipodi="http://sodipodi.sourceforge.net/DTD/sodipodi-0.dtd"
   xmlns="http://www.w3.org/2000/svg"
   xmlns:svg="http://www.w3.org/2000/svg"
   xmlns:rdf="http://www.w3.org/1999/02/22-rdf-syntax-ns#"
   xmlns:cc="http://creativecommons.org/ns#"
   xmlns:dc="http://purl.org/dc/elements/1.1/">
  <defs
     id="defs2">
    <marker
       inkscape:isstock="true"
       style="overflow:visible"
       id="Arrow1Lstart"
       refX="0"
       refY="0"
       orient="auto"
       inkscape:stockid="Arrow1Lstart">
      <path
         transform="matrix(0.8,0,0,0.8,10,0)"
         style="fill-rule:evenodd;stroke:#000000;stroke-width:1pt"
         d="M 0,0 5,-5 -12.5,0 5,5 Z"
         id="path872" />
    </marker>
    <marker
       inkscape:isstock="true"
       style="overflow:visible"
       id="Arrow1Lstart-8"
       refX="0.0"
       refY="0.0"
       orient="auto"
       inkscape:stockid="Arrow1Lstart">
      <path
         transform="scale(0.8) translate(12.5,0)"
         style="fill-rule:evenodd;stroke:#000000;stroke-width:1.0pt"
         d="M 0.0,0.0 L 5.0,-5.0 L -12.5,0.0 L 5.0,5.0 L 0.0,0.0 z "
         id="path872-1" />
    </marker>
    <marker
       inkscape:isstock="true"
       style="overflow:visible"
       id="Arrow1Lstart-4"
       refX="0.0"
       refY="0.0"
       orient="auto"
       inkscape:stockid="Arrow1Lstart">
      <path
         transform="scale(0.8) translate(12.5,0)"
         style="fill-rule:evenodd;stroke:#000000;stroke-width:1.0pt"
         d="M 0.0,0.0 L 5.0,-5.0 L -12.5,0.0 L 5.0,5.0 L 0.0,0.0 z "
         id="path872-2" />
    </marker>
  </defs>
  <sodipodi:namedview
     id="base"
     pagecolor="#ffffff"
     bordercolor="#666666"
     borderopacity="1.0"
     inkscape:pageopacity="0.0"
     inkscape:pageshadow="2"
     inkscape:zoom="2.0922794"
     inkscape:cx="112.55667"
     inkscape:cy="58.070638"
     inkscape:document-units="mm"
     inkscape:current-layer="g930"
     inkscape:document-rotation="0"
     showgrid="false"
     inkscape:window-width="2560"
     inkscape:window-height="1027"
     inkscape:window-x="1912"
     inkscape:window-y="22"
     inkscape:window-maximized="1"
     showguides="true"
     inkscape:guide-bbox="true"
     inkscape:pagecheckerboard="0" />
  <metadata
     id="metadata5">
    <rdf:RDF>
      <cc:Work
         rdf:about="">
        <dc:format>image/svg+xml</dc:format>
        <dc:type
           rdf:resource="http://purl.org/dc/dcmitype/StillImage" />
      </cc:Work>
    </rdf:RDF>
  </metadata>
  <g
     inkscape:label="Layer 1"
     inkscape:groupmode="layer"
     id="layer1">
    <g
       id="g930"
       transform="matrix(1.0538718,0,0,1.0538718,-4.8635382,-2.3703711)">
      <g
         id="g900"
         style="fill:#180027;fill-opacity:1">
        <text
           xml:space="preserve"
           style="font-style:normal;font-weight:normal;font-size:15.7691px;line-height:1.25;font-family:sans-serif;fill:#180027;fill-opacity:1;stroke:none;stroke-width:0.394231"
           x="30.840326"
           y="16.243813"
           id="text925"
           transform="scale(0.99997697,1.000023)"><tspan
             sodipodi:role="line"
             id="tspan923"
             x="30.840326"
             y="16.243813"
             style="font-style:normal;font-variant:normal;font-weight:normal;font-stretch:normal;font-family:Elephant;-inkscape-font-specification:Elephant;stroke-width:0.394231;fill:#180027;fill-opacity:1">URVS</tspan></text>
        <text
           xml:space="preserve"
           style="font-style:normal;font-weight:normal;font-size:4.32246px;line-height:1.25;font-family:sans-serif;fill:#180027;fill-opacity:1;stroke:none;stroke-width:0.108062"
           x="31.16395"
           y="24.613518"
           id="text929"
           transform="scale(0.99997697,1.000023)"><tspan
             sodipodi:role="line"
             id="tspan927"
             x="31.16395"
             y="24.613518"
             style="font-style:normal;font-variant:normal;font-weight:normal;font-stretch:normal;font-family:Euphorigenic;-inkscape-font-specification:Euphorigenic;stroke-width:0.108062;fill:#180027;fill-opacity:1">Universum Regitur Verum Sapientia</tspan></text>
        <rect
           style="fill:#180027;stroke:none;stroke-width:1.07898;stroke-linecap:round;stroke-linejoin:round;fill-opacity:1"
           id="rect931"
           width="49.750256"
           height="0.78947455"
           x="31.24967"
           y="18.611799"
           ry="0" />
      </g>
      <g
         inkscape:label="Camada 1"
         id="layer1-8"
         transform="matrix(0.04584286,0,0,0.04584286,5.0893656,-21.448431)">
        <g
           transform="matrix(7.4572341,0,0,7.4572341,324.22654,618.71807)"
           id="g1006" />
        <g
           transform="matrix(7.4572341,0,0,7.4572341,324.22654,618.71807)"
           id="g978" />
        <g
           transform="matrix(7.4572341,0,0,7.4572341,324.22654,618.71807)"
           id="g980" />
        <g
           transform="matrix(7.4572341,0,0,7.4572341,324.22654,618.71807)"
           id="g982" />
        <g
           transform="matrix(7.4572341,0,0,7.4572341,324.22654,618.71807)"
           id="g984" />
        <g
           transform="matrix(7.4572341,0,0,7.4572341,324.22654,618.71807)"
           id="g986" />
        <g
           transform="matrix(7.4572341,0,0,7.4572341,324.22654,618.71807)"
           id="g988" />
        <g
           transform="matrix(7.4572341,0,0,7.4572341,324.22654,618.71807)"
           id="g990" />
        <g
           transform="matrix(7.4572341,0,0,7.4572341,324.22654,618.71807)"
           id="g992" />
        <g
           transform="matrix(7.4572341,0,0,7.4572341,324.22654,618.71807)"
           id="g994" />
        <g
           transform="matrix(7.4572341,0,0,7.4572341,324.22654,618.71807)"
           id="g996" />
        <g
           transform="matrix(7.4572341,0,0,7.4572341,324.22654,618.71807)"
           id="g998" />
        <g
           transform="matrix(7.4572341,0,0,7.4572341,324.22654,618.71807)"
           id="g1000" />
        <g
           transform="matrix(7.4572341,0,0,7.4572341,324.22654,618.71807)"
           id="g1002" />
        <g
           transform="matrix(7.4572341,0,0,7.4572341,324.22654,618.71807)"
           id="g1004" />
        <g
           id="g940">
          <path
             id="path910"
             style="fill:#840000;fill-opacity:1;stroke:#180027;stroke-width:8;stroke-linecap:round;stroke-linejoin:round;stroke-miterlimit:4;stroke-dasharray:none;stroke-opacity:1;paint-order:normal"
             d="M 220.85547,320.45703 117.25195,417.82617 H 246.50781 L 210.21875,508.00195 409.77344,320.45703 Z"
             transform="translate(0,540.3622)" />
          <path
             id="path963-6"
             style="clip-rule:evenodd;fill:#245c00;fill-opacity:1;fill-rule:evenodd;stroke:#180027;stroke-width:8.00006;stroke-miterlimit:4;stroke-dasharray:none;stroke-opacity:1"
             d="m 66.015321,544.36223 c 0,27.53001 3.937097,59.76191 8.602102,88.40594 l -1.396367,-0.94334 c -2.96161,-2.00212 -7.418862,-1.59343 -9.951819,0.91568 l -26.991148,26.6714 c -2.539426,2.50905 -2.949702,6.90355 -0.929871,9.82972 l 6.462455,9.33193 c -9.644634,14.49412 -16.651376,30.84359 -20.332786,48.40491 l -11.099364,2.05568 c -3.5201443,0.66093 -6.3784913,4.05639 -6.3784913,7.60503 v 37.71485 c 0,3.54865 2.858347,6.94103 6.3784913,7.60198 l 11.052701,2.04645 c 3.687816,17.75012 10.764117,34.27626 20.519392,48.90272 l -6.185668,8.93557 c -2.026319,2.92613 -1.609573,7.33009 0.929856,9.83273 l 26.984962,26.66836 c 2.539445,2.50907 6.987123,2.91137 9.948703,0.91569 l 9.037464,-6.11172 c 14.62436,9.52877 31.127397,16.46655 48.847827,20.1511 l 2.10231,11.07723 c 0.66899,3.47806 4.10244,6.30219 7.69403,6.30219 h 38.17141 c 3.59156,0 7.0281,-2.82413 7.69708,-6.30219 l 2.05879,-10.86523 c 18.01405,-3.60921 34.77035,-10.5994 49.62219,-20.24017 l 9.53819,6.44661 c 2.35166,1.58979 5.62957,1.6337 8.15424,0.338 2.32948,0.78444 5.03817,0.56842 7.0627,-0.79582 l 9.19297,-6.21618 c 14.58433,9.52876 31.02025,16.4943 48.68301,20.20945 l 2.11164,11.12334 c 0.66895,3.47806 4.10241,6.30219 7.69399,6.30219 h 38.17139 c 3.59161,0 7.02506,-2.82413 7.69402,-6.30219 l 2.05254,-10.81913 c 18.06257,-3.5862 34.88803,-10.54639 49.77772,-20.18794 l 9.392,6.34828 c 2.96162,2.00213 7.41572,1.59032 9.94869,-0.91875 l 26.98496,-26.65603 c 2.53944,-2.50907 2.94972,-6.90353 0.92987,-9.82972 l -6.35362,-9.1752 c 9.83492,-14.68183 16.96699,-31.28867 20.67489,-49.13012 l 11.05272,-2.04952 c 3.52015,-0.66095 6.37848,-4.05335 6.37848,-7.60198 v -37.71485 c 0,-3.54864 -2.86455,-6.94411 -6.38472,-7.60503 l -11.09313,-2.0526 c -3.70313,-17.66252 -10.76859,-34.09883 -20.50073,-48.65382 l 6.60864,-9.54702 c 2.02638,-2.92616 1.60956,-7.33015 -0.92989,-9.83278 l -26.98493,-26.66835 c -2.53943,-2.50905 -6.98711,-2.91442 -9.94871,-0.91876 l -1.29372,0.87574 c 4.62593,-28.51552 8.51189,-60.51907 8.51189,-87.87433 -22.91439,0 -51.31441,31.80421 -71.06525,58.38519 -1.46041,-1.42198 -3.42712,-2.34758 -5.46416,-2.34758 h -38.1714 c -3.5916,0 -7.02816,2.82388 -7.69709,6.30834 l -2.11165,11.12025 c -17.74153,3.73416 -34.24978,10.74518 -48.88203,20.3416 l -9.38581,-6.3452 c -1.88182,-1.27217 -4.36586,-1.56341 -6.5775,-0.96794 -2.4802,-1.13451 -5.59369,-1.01613 -7.8495,0.50393 l -9.72476,6.57263 c -14.90438,-9.70916 -31.73475,-16.74513 -49.83368,-20.36927 l -2.05881,-10.856 c -0.66895,-3.48446 -4.10237,-6.30834 -7.69396,-6.30834 h -38.17142 c -1.70115,0 -3.35781,0.64681 -4.71156,1.68386 -19.72897,-26.44462 -47.845828,-57.72147 -70.570769,-57.72147 z" />
          <path
             id="path968-8"
             style="clip-rule:evenodd;fill:#fff6d5;fill-opacity:1;fill-rule:evenodd;stroke:#180027;stroke-width:6;stroke-miterlimit:4;stroke-dasharray:none;stroke-opacity:1"
             d="m 350.125,661.67489 c -51.98053,0 -94.125,42.02881 -94.125,93.86667 0,-51.83786 -42.14448,-93.86667 -94.125,-93.86667 -51.98059,0 -94.125078,42.02881 -94.125078,93.86667 0,51.84959 42.144488,93.87839 94.125078,93.87839 22.74292,0 43.59161,-8.04908 59.86349,-21.42507 L 256,896.34155 290.26151,827.99488 c 16.27187,13.38774 37.12056,21.42507 59.86349,21.42507 51.98058,0 94.12508,-42.0288 94.12508,-93.87839 0,-51.83786 -42.1445,-93.86667 -94.12508,-93.86667 z" />
          <path
             id="path973-2"
             style="clip-rule:evenodd;fill:#270033;fill-opacity:1;fill-rule:evenodd;stroke-width:11.7495"
             d="m 350.12351,708.60752 c -25.99023,0 -47.06119,21.01617 -47.06119,46.93512 0,25.91894 21.07096,46.93206 47.06119,46.93206 25.99032,0 47.06437,-21.01312 47.06437,-46.93206 0,-25.91895 -21.07405,-46.93512 -47.06437,-46.93512 z" />
          <path
             id="path4079"
             style="clip-rule:evenodd;fill:#270033;fill-opacity:1;fill-rule:evenodd;stroke-width:11.7495"
             d="m 161.87555,708.60752 c -25.99032,0 -47.06437,21.01617 -47.06437,46.93512 0,25.91894 21.07405,46.93206 47.06437,46.93206 25.99023,0 47.06121,-21.01312 47.06121,-46.93206 0,-25.91895 -21.07098,-46.93512 -47.06121,-46.93512 z" />
        </g>
      </g>
    </g>
  </g>
</svg>
