<?xml version="1.0" encoding="UTF-8" standalone="no"?>
<svg
   xmlns:dc="http://purl.org/dc/elements/1.1/"
   xmlns:cc="http://creativecommons.org/ns#"
   xmlns:rdf="http://www.w3.org/1999/02/22-rdf-syntax-ns#"
   xmlns:svg="http://www.w3.org/2000/svg"
   xmlns="http://www.w3.org/2000/svg"
   xmlns:sodipodi="http://sodipodi.sourceforge.net/DTD/sodipodi-0.dtd"
   xmlns:inkscape="http://www.inkscape.org/namespaces/inkscape"
   id="Outline"
   version="1.1"
   viewBox="0 0 512 512"
   xml:space="preserve"
   sodipodi:docname="artistico.svg"
   width="512"
   height="512"
   inkscape:version="0.92.5 (2060ec1f9f, 2020-04-08)"><metadata
     id="metadata13"><rdf:RDF><cc:Work
         rdf:about=""><dc:format>image/svg+xml</dc:format><dc:type
           rdf:resource="http://purl.org/dc/dcmitype/StillImage" /><dc:title></dc:title></cc:Work></rdf:RDF></metadata><defs
     id="defs11" /><sodipodi:namedview
     pagecolor="#ffffff"
     bordercolor="#666666"
     borderopacity="1"
     objecttolerance="10"
     gridtolerance="10"
     guidetolerance="10"
     inkscape:pageopacity="0"
     inkscape:pageshadow="2"
     inkscape:window-width="1864"
     inkscape:window-height="1016"
     id="namedview9"
     showgrid="false"
     inkscape:zoom="0.4609375"
     inkscape:cx="19.118644"
     inkscape:cy="32"
     inkscape:window-x="56"
     inkscape:window-y="27"
     inkscape:window-maximized="1"
     inkscape:current-layer="Outline" /><desc
     id="desc4" /><path
     d="M 332.8,93.86667 V 59.73333 C 332.8,55.02293 328.97707,51.2 324.26667,51.2 h -8.53334 V 25.6 c 0,-4.7104 -3.82293,-8.53333 -8.53333,-8.53333 h -17.06667 c -8.38826,0 -16.64853,1.16906 -24.6528,3.34506 C 251.648,7.6288 233.216,0 213.33333,0 H 204.8 c -4.7104,0 -8.53333,3.82293 -8.53333,8.53333 v 25.6 h -8.53334 c -4.7104,0 -8.53333,3.82294 -8.53333,8.53334 v 68.26666 c 0,20.0192 10.1376,38.26347 26.15467,49.22027 -10.05227,10.76053 -15.55627,24.94293 -17.4592,34.44053 -0.60587,2.9696 0.44373,6.05014 2.7136,8.07254 2.28693,2.01386 5.46133,2.6624 8.3456,1.69813 0.2048,-0.0683 16.9216,-5.5808 31.4368,-7.45813 v 24.96 H 213.3248 v 17.06666 h 17.06667 v 51.2 H 213.3248 V 307.2 h 17.06667 v 19.72907 c -15.5904,-4.75307 -33.82614,-4.9408 -36.42027,-4.9408 -4.7104,0 -8.53333,3.82293 -8.53333,8.53333 0,4.0704 0.4096,40.14933 14.5664,54.30613 6.6304,6.6304 15.35146,10.0352 24.1408,10.0352 2.09066,0 4.1728,-0.26453 6.2464,-0.64853 v 32.45227 H 213.3248 v 17.06666 h 17.06667 v 59.73334 c 0,4.7104 3.82293,8.53333 8.53333,8.53333 h 34.13333 c 4.7104,0 8.53334,-3.82293 8.53334,-8.53333 v -25.6 h 17.06666 V 460.8 h -17.06666 v -51.2 h 17.06666 v -17.06667 h -17.06666 v -11.2128 c 0.8704,0.0512 1.7408,0.21334 2.6112,0.21334 11.09333,0 21.87946,-4.352 30.0544,-12.53547 20.5312,-20.5312 15.16373,-62.8224 14.48106,-67.584 -0.5376,-3.75467 -3.4816,-6.7072 -7.2448,-7.23627 -0.98133,-0.14506 -20.70186,-2.8416 -39.9104,1.0752 V 273.06667 H 298.6496 V 256 h -17.06667 v -59.10187 c 14.5152,1.88587 31.232,7.3984 31.4368,7.45814 2.88427,0.96426 6.05867,0.31573 8.3456,-1.69814 2.2784,-2.0224 3.31947,-5.10293 2.7136,-8.07253 -2.18453,-10.93973 -9.15626,-28.06613 -22.3488,-39.04 C 321.10933,141.16693 332.8,118.3488 332.8,93.86667 Z m -17.06667,0 c 0,20.18133 -10.29973,38.81813 -27.008,49.8176 6.272,-9.54027 9.94134,-20.82134 9.94134,-32.75094 0,-14.65173 -4.1984,-28.3136 -11.34934,-39.97013 6.44267,-1.72373 13.0816,-2.69653 19.88267,-2.69653 h 8.53333 z M 298.66667,34.13333 V 51.6352 c -4.11307,0.36693 -8.17494,1.024 -12.17707,1.92 -2.09067,-6.59627 -4.992,-12.7744 -8.6272,-18.4064 4.03627,-0.64853 8.13227,-1.01547 12.27093,-1.01547 z M 213.33333,17.06667 c 21.99894,0 41.55734,12.10026 51.93387,30.5664 -12.35627,-8.4992 -27.29813,-13.49974 -43.40053,-13.49974 h -8.53334 z M 196.26667,51.2 h 25.6 c 32.93866,0 59.73333,26.79467 59.73333,59.73333 0,17.536 -10.8288,33.21174 -27.02507,39.61174 -4.34346,-3.3792 -9.728,-5.4784 -15.6416,-5.4784 -7.04,0 -13.2096,1.57866 -18.67946,4.13013 -14.4896,-7.08267 -23.9872,-21.85387 -23.9872,-38.26347 z m 42.66666,110.93333 c 4.70187,0 8.5248,3.82294 8.53334,8.5248 0,0 0,0 0,0.009 0,0.009 0,0 0,0.009 0,4.70187 -3.83147,8.5248 -8.53334,8.5248 -9.1648,0 -20.28373,2.16747 -29.22666,4.3776 4.87253,-9.96693 13.83253,-21.44427 29.22666,-21.44427 z m -26.84586,210.61974 c -5.26507,-5.26507 -8.22614,-20.48854 -9.19894,-33.31414 8.50774,0.64854 19.8144,2.23574 27.52,5.6064 v 31.47947 c -6.21226,2.4576 -13.4144,1.14347 -18.32106,-3.77173 z m 35.3792,122.18026 v -300.2368 c 3.19146,-1.13493 6.0672,-2.85866 8.53333,-5.08586 2.46613,2.2272 5.34187,3.95093 8.53333,5.08586 v 300.2368 z m 65.0496,-184.46506 c 0.87893,13.37173 0.0256,36.13013 -10.3168,46.47253 -5.5296,5.5296 -13.056,8.0896 -20.59947,7.33013 v -22.9376 h 17.06667 V 324.26667 H 281.6 V 312.7808 c 11.05067,-2.90987 23.50933,-2.78187 30.91627,-2.31253 z M 273.06667,179.2 c -4.70187,0 -8.5248,-3.82293 -8.53334,-8.5248 0,0 0,0 0,-0.009 0,-0.009 0,0 0,-0.009 0,-4.70186 3.83147,-8.5248 8.53334,-8.5248 15.39413,0 24.35413,11.47734 29.22666,21.44427 -8.94293,-2.21013 -20.0704,-4.3776 -29.22666,-4.3776 z"
     id="path6"
     inkscape:connector-curvature="0"
     style="stroke-width:8.53333378" /></svg>