<?xml version="1.0" encoding="UTF-8" standalone="no"?>
<!-- Created with Inkscape (http://www.inkscape.org/) -->

<svg
   xmlns:dc="http://purl.org/dc/elements/1.1/"
   xmlns:cc="http://creativecommons.org/ns#"
   xmlns:rdf="http://www.w3.org/1999/02/22-rdf-syntax-ns#"
   xmlns:svg="http://www.w3.org/2000/svg"
   xmlns="http://www.w3.org/2000/svg"
   xmlns:sodipodi="http://sodipodi.sourceforge.net/DTD/sodipodi-0.dtd"
   xmlns:inkscape="http://www.inkscape.org/namespaces/inkscape"
   version="1.1"
   id="svg2"
   width="512"
   height="512"
   viewBox="0 0 512 512"
   sodipodi:docname="science.svg"
   inkscape:version="0.92.5 (2060ec1f9f, 2020-04-08)">
  <metadata
     id="metadata8">
    <rdf:RDF>
      <cc:Work
         rdf:about="">
        <dc:format>image/svg+xml</dc:format>
        <dc:type
           rdf:resource="http://purl.org/dc/dcmitype/StillImage" />
        <dc:title></dc:title>
      </cc:Work>
    </rdf:RDF>
  </metadata>
  <defs
     id="defs6" />
  <sodipodi:namedview
     pagecolor="#ffffff"
     bordercolor="#666666"
     borderopacity="1"
     objecttolerance="10"
     gridtolerance="10"
     guidetolerance="10"
     inkscape:pageopacity="0"
     inkscape:pageshadow="2"
     inkscape:window-width="857"
     inkscape:window-height="673"
     id="namedview4"
     showgrid="false"
     inkscape:zoom="0.34570311"
     inkscape:cx="700.02262"
     inkscape:cy="341.33334"
     inkscape:window-x="56"
     inkscape:window-y="27"
     inkscape:window-maximized="0"
     inkscape:current-layer="svg2" />
  <path
     style="fill:#000000;stroke-width:1.00177574"
     d="m 241.98505,511.43652 c -6.87184,-0.92459 -8.58589,-1.26031 -11.02118,-2.15846 -0.82659,-0.30485 -3.94795,-1.12345 -6.93639,-1.819 -2.98843,-0.69555 -8.17341,-2.64825 -11.52217,-4.33924 -3.34883,-1.69099 -6.40437,-3.09419 -6.79011,-3.1183 -0.38574,-0.024 -1.26493,-0.60714 -1.95376,-1.29577 -0.68883,-0.68865 -1.70158,-1.25206 -2.25058,-1.25206 -3.21259,0 -19.88895,-14.3637 -20.48575,-17.64479 -0.91279,-5.01834 -0.20989,-7.27688 3.38238,-10.86799 3.10566,-3.10471 4.15335,-3.53905 8.53632,-3.53905 5.36524,0 10.3426,2.4694 14.8998,7.39226 1.33596,1.44317 2.87143,2.62392 3.41219,2.62392 0.54076,0 2.37834,1.04179 4.08352,2.3151 1.70526,1.27324 4.67844,2.93793 6.60718,3.69922 1.92867,0.76127 3.73289,1.70585 4.00935,2.09919 0.99852,1.4207 15.75605,4.01316 26.04855,4.57596 8.46852,0.46305 12.81624,0.13965 22.2929,-1.65839 6.47499,-1.22853 11.7727,-2.54496 11.7727,-2.92546 0,-0.38049 1.66288,-1.29291 3.69524,-2.0276 2.03237,-0.73469 5.97747,-2.8151 8.76684,-4.62314 6.84884,-4.43916 24.60931,-21.80397 24.60931,-24.06099 0,-0.30538 1.09215,-2.89361 2.42695,-5.75169 2.85595,-6.11513 5.02553,-13.49206 4.69504,-15.96395 -0.12895,-0.96405 0.24482,-1.75283 0.8305,-1.75283 0.6984,0 1.05082,-4.39547 1.024,-12.77068 l -0.0406,-12.77067 -7.97451,-4.00169 c -4.38598,-2.20092 -7.97451,-4.34189 -7.97451,-4.7577 0,-0.4158 -0.56359,-0.75879 -1.25237,-0.76219 -0.68885,-0.003 -2.60504,-0.73124 -4.25822,-1.61744 -1.65319,-0.88621 -7.51448,-3.92216 -13.02507,-6.74658 -5.51066,-2.82441 -10.24478,-5.36435 -10.52026,-5.64431 -0.27556,-0.27997 -4.33338,-2.49413 -9.01738,-4.92041 -4.68407,-2.42626 -11.53915,-5.99144 -15.23357,-7.92262 l -6.71718,-3.51124 -6.30796,3.19365 c -3.46935,1.75651 -8.67493,4.4996 -11.568,6.09574 -2.89308,1.59614 -5.26014,2.65486 -5.26014,2.35268 0,-0.30217 -0.56358,-0.0907 -1.25244,0.47012 -6.50941,5.29894 -15.29331,7.51513 -21.07551,5.31741 -3.53289,-1.34279 -6.62131,-6.73569 -6.12915,-10.7025 0.56495,-4.55343 2.14746,-8.41021 3.45087,-8.41021 0.60148,0 2.52883,-1.07451 4.28304,-2.3878 1.75418,-1.31329 4.31654,-2.71879 5.69424,-3.12334 1.37763,-0.40455 3.18193,-1.32695 4.0095,-2.04978 0.82764,-0.72284 2.74384,-1.78519 4.25823,-2.3608 1.51439,-0.57559 2.75345,-1.73379 2.75345,-2.57376 0,-0.83998 -0.33815,-1.4494 -0.75145,-1.35428 -1.26754,0.29176 -9.26782,-3.34288 -9.26782,-4.21051 0,-0.44836 -1.53175,-1.32055 -3.40391,-1.93823 -1.87216,-0.61767 -4.42091,-2.00481 -5.66392,-3.08254 -1.243,-1.07772 -2.91045,-1.9595 -3.70542,-1.9595 -0.79497,0 -2.7549,-0.93215 -4.35538,-2.07144 -1.60048,-1.13931 -2.91688,-1.70273 -2.92531,-1.25203 -0.008,0.45068 -0.34659,0.36797 -0.75145,-0.1838 -0.40486,-0.55177 -2.08872,-1.67787 -3.7419,-2.50246 -1.65319,-0.82458 -3.23123,-1.72533 -3.50675,-2.00165 -0.56256,-0.56418 -9.85258,-5.00971 -10.46901,-5.00971 -0.21785,0 -0.54394,8.63949 -0.72465,19.19886 -0.2435,14.2295 -0.65271,19.30658 -1.58096,19.61508 -0.68882,0.22893 -1.25241,1.07778 -1.25241,1.88631 0,1.82373 -5.87955,4.37273 -10.08618,4.37273 -4.14433,0 -9.72627,-2.71789 -10.48408,-5.10477 -0.33292,-1.04862 -1.02579,-1.90658 -1.53972,-1.90658 -0.55385,0 -0.93441,-10.55616 -0.93441,-25.91953 0,-19.5147 -0.30948,-26.17578 -1.25241,-26.95666 -0.68883,-0.57044 -5.19661,-3.0487 -10.0173,-5.50725 -4.8207,-2.45857 -9.4421,-5.03196 -10.26978,-5.71867 -0.8277,-0.68671 -1.5118,-0.85534 -1.52024,-0.37472 -0.008,0.48062 -0.34659,0.41069 -0.75145,-0.1554 -0.40486,-0.5661 -2.6523,-1.87405 -4.99431,-2.90658 -2.34201,-1.03254 -4.2582,-2.22378 -4.2582,-2.64723 0,-0.42347 -1.34744,-1.06578 -2.9943,-1.42737 -1.64687,-0.36161 -3.26727,-1.09899 -3.60089,-1.63864 -0.33363,-0.53967 -3.05548,-2.101 -6.04856,-3.46962 -2.99308,-1.36865 -7.68483,-3.81048 -10.426127,-5.42631 -2.741295,-1.61583 -4.991069,-2.61152 -4.999508,-2.21264 -0.0084,0.39888 -0.34659,0.27377 -0.751447,-0.278 -0.404858,-0.55177 -2.088716,-1.66234 -3.741901,-2.46795 -1.653185,-0.80561 -4.20256,-2.26977 -5.665283,-3.25367 -3.399158,-2.28649 -5.979471,-2.26449 -8.978065,0.0765 -1.314207,1.026 -3.516632,2.20015 -4.894283,2.60919 -7.4023,2.19791 -26.059277,17.87362 -31.629878,26.57562 -4.229537,6.60708 -5.317776,8.80444 -4.677423,9.44459 0.314481,0.31439 0.04576,0.57162 -0.59713,0.57162 -0.642901,0 -1.171694,0.78877 -1.175091,1.75284 -0.0038,0.96406 -0.673342,3.03162 -1.488768,4.59457 -3.816128,7.31448 -4.504409,29.99121 -1.149406,37.86967 0.786945,1.84796 2.009836,4.71213 2.717534,6.36481 1.733199,4.04752 1.606603,3.72177 2.432797,6.26013 0.403437,1.23951 1.158416,2.25365 1.677727,2.25365 0.51931,0 0.665549,0.45073 0.324978,1.00162 -0.340578,0.55089 -0.127603,1.00162 0.473277,1.00162 0.60088,0 1.377088,0.78878 1.724903,1.75284 0.714258,1.97973 1.276153,2.64215 8.588106,10.12456 6.973343,7.13592 7.927854,7.94125 11.883797,10.02627 7.381845,3.89069 10.833529,6.37479 11.418629,8.2177 0.337099,1.06179 1.033398,1.93052 1.54732,1.93052 1.367462,0 1.142411,7.40438 -0.267898,8.81427 -0.661274,0.66106 -0.886708,1.20194 -0.500968,1.20194 1.029897,0 -2.824421,3.67815 -5.168524,4.9323 -3.536425,1.89204 -15.170659,0.52629 -15.170659,-1.78091 0,-0.36252 -1.461167,-1.30571 -3.247034,-2.09597 -2.886108,-1.27711 -9.104441,-5.60261 -12.922651,-8.98904 -7.494126,-6.64666 -13.168359,-12.09881 -12.591616,-12.09881 0.388994,0 -0.08176,-0.82712 -1.04612,-1.83802 -0.964355,-1.01092 -2.429678,-2.86906 -3.25627,-4.12922 -0.826593,-1.26015 -2.098688,-2.91205 -2.826878,-3.67089 -0.728183,-0.75885 -0.953617,-1.3866 -0.50096,-1.39504 0.452657,-0.008 0.372147,-0.34848 -0.17892,-0.75567 -1.49269,-1.10295 -7.7203572,-13.24923 -6.8023063,-13.26703 0.4349003,-0.008 0.2677934,-0.34797 -0.3713503,-0.75453 -0.6391437,-0.40653 -1.7513312,-3.66743 -2.471526,-7.24641 -0.7201948,-3.57897 -1.768667,-6.82475 -2.3299458,-7.21282 -1.37272926,-0.94911 -1.37272926,-31.69485 0,-32.64396 0.5612788,-0.38807 1.609751,-3.63384 2.3299458,-7.21282 0.7201948,-3.57898 1.6288978,-6.73409 2.0193424,-7.01135 0.3904372,-0.27728 1.2696233,-2.41972 1.9537411,-4.76101 0.6841181,-2.34128 1.6766225,-4.25688 2.2055664,-4.25688 0.5289367,0 0.9606657,-0.56342 0.9593957,-1.25204 -0.0053,-2.76204 9.931566,-15.75 17.995936,-23.52201 4.706639,-4.53602 8.833679,-8.25454 9.171199,-8.26338 0.337528,-0.009 2.366436,-1.41662 4.508686,-3.1284 2.142256,-1.71175 4.909462,-3.50352 6.14935,-3.98169 2.880442,-1.11084 2.880442,-2.73034 0,-3.84118 -1.239888,-0.47817 -4.007094,-2.26994 -6.14935,-3.98169 -2.14225,-1.71178 -4.171346,-3.11231 -4.509099,-3.11231 -0.337753,0 -4.490192,-3.71853 -9.22764,-8.26339 -8.065602,-7.7377 -17.936768,-20.68557 -17.936768,-23.5274 0,-0.6945 -0.452596,-1.26273 -1.0057746,-1.26273 -0.5531781,0 -1.5484253,-2.02827 -2.2116681,-4.50729 -0.6632352,-2.47902 -1.6114793,-4.5073 -2.1072092,-4.5073 -0.4957225,0 -0.647342,-0.66166 -0.3369191,-1.47035 0.310423,-0.8087 0.1724573,-1.71252 -0.3065905,-2.0085 -0.4790403,-0.29597 -1.1908716,-2.45136 -1.5818347,-4.78976 -0.3909706,-2.33841 -1.2159999,-4.57127 -1.8334042,-4.96191 -1.52824142,-0.96696 -1.54777905,-32.01383 -0.021341,-33.95076 0.6056592,-0.76855 1.7098964,-4.21442 2.4538595,-7.65749 0.7439631,-3.44307 1.7105276,-6.26013 2.1479226,-6.26013 0.4373876,0 0.795257,-0.63032 0.795257,-1.40072 0,-2.3171 6.9317653,-15.21875 9.7688183,-18.18209 0.688822,-0.71948 1.252407,-1.77522 1.252407,-2.34609 0,-0.57085 0.901737,-1.52037 2.003863,-2.11002 1.102125,-0.58966 2.003862,-1.56563 2.003862,-2.16882 0,-1.14935 10.375289,-11.85388 11.489273,-11.85388 0.353413,0 2.083433,-1.3603 3.844495,-3.0229 1.761063,-1.66257 4.89269,-3.777597 6.959171,-4.700047 2.066481,-0.92244 3.757238,-1.98029 3.757238,-2.35077 0,-2.01131 25.583603,-11.12439 36.627577,-13.04702 8.5689,-1.49175 37.698031,-0.70152 42.023941,1.14006 3.61728,1.53989 3.29389,1.43066 7.01351,2.36921 6.90906,1.74334 13.12149,3.92342 14.52799,5.09817 0.82659,0.6904 2.51734,1.56432 3.75723,1.94206 2.16562,0.65975 2.25435,0.4476 2.25435,-5.39045 0,-3.96252 0.40675,-6.07722 1.16892,-6.07722 0.6429,0 0.92755,-0.2413 0.63254,-0.5362 -0.295,-0.29491 0.10938,-3.33735 0.89861,-6.76095 0.78925,-3.42361 1.43436,-7.01352 1.43359,-7.97758 -7.6e-4,-0.96407 0.38562,-1.75284 0.85865,-1.75284 0.47302,0 1.17628,-1.43934 1.56278,-3.19853 0.3865,-1.75919 1.32407,-3.81967 2.08346,-4.57884 0.75942,-0.75917 1.38074,-2.08603 1.38074,-2.94859 0,-1.99588 8.73218,-15.3162 10.0406,-15.3162 0.53935,0 0.98064,-0.56499 0.98064,-1.25552 0,-1.74454 15.77575,-16.24317 22.12001,-20.32929 2.87294,-1.85035 7.75043,-4.5646 10.8389,-6.03167 3.08847,-1.46707 6.74259,-3.23302 8.12022,-3.92435 1.37763,-0.69134 4.98458,-1.82198 8.01547,-2.51256 3.03081,-0.69056 6.18689,-1.505 7.01348,-1.80985 2.05686,-0.75859 3.2443,-0.9637 13.02507,-2.24993001 8.656,-1.1383 30.00891,-0.54161 31.0196,0.86683001 0.29765,0.4148 1.2175,0.77803 2.04409,0.80718 0.82659,0.0292 2.1792,0.30388 3.00579,0.61052 0.82659,0.30664 4.20811,1.10682 7.51448,1.77819 3.30636,0.67137 7.13875,1.81434 8.51645,2.53996 1.37763,0.72562 3.97012,1.91213 5.76105,2.6367 1.791,0.72457 3.25632,1.68471 3.25632,2.13363 0,0.44893 0.45087,0.53766 1.00191,0.1972 0.55103,-0.34048 1.0019,-0.25173 1.0019,0.19718 0,0.44893 1.44969,1.45771 3.22146,2.24174 5.06024,2.23919 11.31988,6.75762 14.71154,10.6193 4.066,4.62951 4.2562,9.9632 0.51369,14.40952 -1.42663,1.69493 -3.42893,3.08172 -4.44955,3.08172 -1.02062,0 -2.13434,0.45072 -2.47489,1.00161 -0.77828,1.25885 -5.19807,1.31596 -5.96394,0.0771 -0.31441,-0.50851 -1.86239,-1.20797 -3.44005,-1.55439 -1.57767,-0.3464 -3.90543,-1.73327 -5.17282,-3.08192 -1.26739,-1.34866 -2.70671,-2.45209 -3.19846,-2.45209 -0.49182,0 -2.32941,-1.04683 -4.08359,-2.32627 -4.98014,-3.63234 -15.70405,-7.67602 -24.35457,-9.18342 -8.13795,-1.41806 -22.77246,-2.11475 -25.42462,-1.21034 -0.82659,0.28188 -4.65898,0.99533 -8.51638,1.58546 -13.63464,2.08588 -25.75429,8.68373 -38.15403,20.77091 -7.00529,6.82868 -14.34179,16.99238 -14.29194,19.7995 0.009,0.4893 -0.38506,1.16539 -0.87498,1.50244 -1.08048,0.74329 -3.42987,9.74989 -3.36047,12.88265 0.0274,1.2395 -0.39589,2.25364 -0.94078,2.25364 -0.60133,0 -0.99071,5.0316 -0.99071,12.8015 v 12.801467 l 2.7553,1.15605 c 1.51542,0.63581 7.03856,3.50729 12.27365,6.38106 5.23509,2.87376 13.57616,7.34599 18.53573,9.93829 4.95956,2.59228 13.52606,7.09817 19.03665,10.01307 5.51059,2.9149 13.06264,6.89313 16.7823,8.84047 l 6.76303,3.54066 7.26402,-3.80524 c 3.99522,-2.09286 11.54727,-6.06674 16.7823,-8.83083 20.81585,-10.99057 20.94645,-11.04477 25.23797,-10.46935 5.62496,0.75424 10.57392,6.16574 10.64959,11.64489 0.0436,3.15108 -0.63302,4.66562 -3.38858,7.58653 -1.89365,2.0072 -3.44298,3.33681 -3.44298,2.95469 0,-0.38212 -0.65564,-0.15078 -1.45706,0.5141 -0.80134,0.66489 -2.94297,1.98137 -4.75914,2.92553 -1.81618,0.94414 -4.2039,2.24689 -5.30597,2.89498 -1.10215,0.64809 -3.58193,1.88205 -5.51067,2.74212 -6.52136,2.90814 -9.01737,4.60009 -9.01737,6.11268 0,0.8288 0.33815,1.31876 0.75145,1.08881 0.41329,-0.22994 3.00579,0.83556 5.76112,2.36778 2.75533,1.53221 6.70043,3.54561 8.76691,4.47421 2.06648,0.92859 3.75724,2.04128 3.75724,2.47264 0,0.43135 1.21239,1.08848 2.69417,1.46028 1.48185,0.37178 3.84891,1.4841 5.26013,2.47179 1.41129,0.9877 4.36944,2.62449 6.57366,3.6373 2.20422,1.01282 4.23313,2.09034 4.50869,2.39449 0.27555,0.30414 2.81071,1.71303 5.63382,3.13087 l 5.13284,2.57786 0.49137,-9.39162 c 0.45057,-8.61053 0.72673,-9.63711 3.32058,-12.34367 2.47293,-2.58044 3.53075,-2.95034 8.40276,-2.9384 7.68595,0.0189 9.24273,0.63001 11.83567,4.64636 2.08008,3.22186 2.25434,4.64287 2.25434,18.37852 V 201.839 l 2.75534,1.89655 c 1.51544,1.04311 4.22065,2.48069 6.01158,3.19459 1.79092,0.71392 3.25624,1.69408 3.25624,2.17813 0,0.48406 0.33816,0.81049 0.75145,0.72541 1.48193,-0.30507 8.26593,3.20909 8.26593,4.28178 0,0.60244 0.6763,0.83591 1.50289,0.5188 0.82659,-0.31709 1.50462,-0.25263 1.50665,0.14324 0,0.39589 2.03102,1.55321 4.50869,2.57185 2.47775,1.01862 4.50493,2.25813 4.50493,2.75446 0,0.49631 0.4955,0.9024 1.10102,0.9024 1.20254,0 8.11105,3.06317 8.91833,3.95429 0.27548,0.30415 4.55873,2.58129 9.51828,5.0603 4.95956,2.47902 9.16766,4.84535 9.35139,5.25851 0.18365,0.41318 0.88445,0.75122 1.55723,0.75122 0.67277,0 3.35604,1.3522 5.96288,3.00487 2.60677,1.65267 5.28042,3.00486 5.9414,3.00486 1.48644,0 12.02699,-5.19806 12.86763,-6.34568 0.33718,-0.46023 0.91189,-0.78155 1.27716,-0.71405 2.40103,0.44367 18.94287,-13.38147 25.7086,-21.48648 2.6856,-3.21714 6.52309,-10.52968 6.17623,-11.76906 -0.11565,-0.41316 0.24061,-0.75121 0.79165,-0.75121 0.55111,0 1.00198,-0.70082 1.00198,-1.55739 0,-0.85656 0.92894,-3.59604 2.06437,-6.08773 2.60279,-5.71157 3.70734,-22.36431 2.01749,-30.4165 -0.6358,-3.02989 -1.21321,-6.07233 -1.2831,-6.76095 -0.0699,-0.68861 -0.50272,-1.25202 -0.96193,-1.25202 -0.45921,0 -0.83493,-0.64675 -0.83493,-1.43723 0,-0.79047 -0.52368,-2.70607 -1.16377,-4.25688 -0.64,-1.55083 -1.09087,-3.15772 -1.0019,-3.57088 0.089,-0.41318 -0.28908,-0.75122 -0.84012,-0.75122 -0.55104,0 -1.0019,-0.67609 -1.0019,-1.50244 0,-0.82634 -0.47755,-1.50243 -1.06112,-1.50243 -0.58358,0 -0.78241,-0.45073 -0.44178,-1.00162 0.34056,-0.55089 0.13053,-1.00162 -0.46665,-1.00162 -0.59725,0 -1.51447,-1.12682 -2.03822,-2.50406 -0.52376,-1.37722 -1.41438,-2.50405 -1.97909,-2.50405 -0.56464,0 -0.91399,-0.37917 -0.77625,-0.84261 0.13782,-0.46344 -2.22924,-3.20769 -5.26013,-6.09831 -7.8506,-7.48744 -7.84887,-7.4861 -15.02895,-11.65476 -9.84877,-5.71812 -10.98985,-7.06595 -10.96783,-12.9554 0.027,-7.183217 3.02037,-10.625117 9.80812,-11.277127 5.6575,-0.54345 9.38738,0.13021 11.35948,2.05165 0.72733,0.70868 3.01323,2.08135 5.07971,3.05035 2.06648,0.969 3.75724,2.19141 3.75724,2.71646 0,0.525037 0.56359,0.959267 1.25236,0.964957 0.68885,0.006 2.96409,1.47058 5.05604,3.25528 6.63694,5.66208 15.11935,13.76195 14.41201,13.76195 -0.37497,0 0.10724,0.8271 1.07157,1.83802 0.96433,1.01092 2.42965,2.86906 3.25625,4.12922 0.82659,1.26015 1.95707,2.79937 2.51209,3.42049 1.98149,2.21743 8.4014,15.42662 7.79311,16.03472 -0.34093,0.34084 -0.15255,0.61971 0.4187,0.61971 0.57118,0 1.59044,2.81706 2.26502,6.26013 0.67457,3.44307 1.74659,6.89154 2.38239,7.66328 1.54633,1.87714 1.53686,32.98631 -0.0105,33.96599 -0.59868,0.37907 -1.40844,2.60248 -1.79942,4.94089 -0.39098,2.3384 -1.10275,4.49379 -1.5818,4.78976 -0.47904,0.29598 -0.63452,1.15422 -0.34551,1.90718 0.289,0.75298 0.0564,1.65904 -0.51752,2.01346 -0.57366,0.35443 -1.52349,2.42831 -2.11075,4.60861 -0.58725,2.18031 -1.50124,3.96419 -2.03108,3.96419 -0.52985,0 -0.96231,0.56342 -0.96103,1.25204 0,0.68861 -2.12013,4.40713 -4.71428,8.26337 -7.15506,10.63616 -22.50608,24.7908 -32.91926,30.35371 -3.34079,1.78471 -3.08349,2.80971 1.31127,5.22371 6.03458,3.31471 10.24727,6.61965 18.88598,14.81651 7.62419,7.2342 17.43404,20.15576 17.43404,22.96415 0,0.6945 0.41585,1.26273 0.9242,1.26273 0.50828,0 1.46878,1.69023 2.13441,3.75607 0.66564,2.06584 1.61013,4.26236 2.09887,4.88115 0.48874,0.6188 0.60717,1.85829 0.26316,2.75446 -0.34394,0.89616 -0.16592,1.62939 0.39564,1.62939 0.56155,0 1.34133,1.91561 1.73283,4.25689 0.39143,2.34129 1.19466,4.56278 1.78484,4.93664 1.50605,0.9539 1.54483,30.8132 0.0443,33.97435 -1.53281,3.22909 -3.83449,11.11541 -3.69855,12.67252 0.0601,0.68861 -0.36656,1.25202 -0.94825,1.25202 -0.5817,0 -0.764,0.29353 -0.40511,0.65228 0.70042,0.70021 -5.16455,12.38152 -6.83103,13.60549 -0.55111,0.40474 -0.63159,0.74278 -0.17892,0.75122 0.45259,0.008 0.22716,0.67579 -0.50099,1.48301 -3.01413,3.34124 -3.82878,4.51001 -3.82878,5.49291 0,0.56947 -0.90174,1.59838 -2.00388,2.28646 -1.10215,0.68807 -2.00389,1.65201 -2.00389,2.14208 0,0.97834 -10.48247,11.64817 -11.44364,11.64817 -0.32824,0 -2.00133,1.2395 -3.71786,2.75446 -1.71654,1.51495 -3.5161,2.64177 -3.99906,2.50405 -0.48295,-0.13772 -0.87806,0.22378 -0.87806,0.80332 0,0.57955 -1.35261,1.52511 -3.00579,2.10123 -1.65319,0.57612 -3.0058,1.40066 -3.0058,1.83228 0,1.02122 -15.22004,7.52155 -21.04053,8.98616 -2.47977,0.624 -5.41042,1.54931 -6.51249,2.05625 -8.50113,3.9103 -48.19905,3.95166 -53.06798,0.0553 -0.56997,-0.45612 -2.61428,-1.13844 -4.54302,-1.51631 -5.70642,-1.1179 -13.41425,-3.71478 -15.02896,-5.06345 -0.82659,-0.69039 -2.51734,-1.56431 -3.75723,-1.94205 -2.1656,-0.65975 -2.25435,-0.44761 -2.25435,5.39045 0,3.96252 -0.40675,6.07722 -1.16895,6.07722 -0.64286,0 -0.92751,0.2413 -0.63249,0.5362 0.29494,0.29491 -0.10941,3.33735 -0.89866,6.76097 -0.78924,3.4236 -1.43436,7.01351 -1.43353,7.97754 7.5e-4,0.96412 -0.42149,1.75289 -0.93826,1.75289 -0.51685,0 -0.94269,0.78878 -0.9463,1.75281 0,0.96404 -0.90241,3.10501 -1.99727,4.75768 -1.09486,1.65268 -1.99359,3.6301 -1.99727,4.39431 -0.0256,5.29773 -20.50603,28.43195 -31.56741,35.65708 -9.82247,6.41591 -21.25785,11.8128 -28.59717,13.49627 -3.00759,0.68992 -6.20079,1.62548 -7.09584,2.07899 -0.89512,0.45358 -2.47316,0.68879 -3.50678,0.5227 -1.03362,-0.16617 -2.40771,0.11673 -3.05351,0.62868 -1.63071,1.29254 -24.48118,1.83959 -32.39047,0.77533 z M 423.33444,406.30616 c 0,-0.55089 0.86529,-1.00162 1.92288,-1.00162 3.16773,0 13.53057,-2.90775 17.92195,-5.0288 2.25757,-1.0904 4.54513,-1.98255 5.08347,-1.98255 0.53826,0 1.57451,-0.57286 2.30273,-1.27302 0.72816,-0.70016 3.57832,-2.71221 6.33358,-4.47121 5.74188,-3.66562 9.1633,-6.72572 12.02316,-10.75342 1.10215,-1.55215 2.7929,-3.53335 3.75724,-4.40265 0.9644,-0.86933 1.75342,-2.17065 1.75342,-2.89184 0,-0.72119 0.67368,-1.56972 1.49711,-1.8856 0.82344,-0.31589 1.24771,-0.97783 0.94284,-1.47099 -0.30493,-0.49318 -0.0769,-0.89667 0.50671,-0.89667 0.58357,0 1.06104,-0.67609 1.06104,-1.50244 0,-0.82634 0.47747,-1.50243 1.06104,-1.50243 0.58365,0 0.78294,-0.44994 0.44298,-0.99987 -0.34003,-0.54992 0.0842,-2.0024 0.94277,-3.22772 0.85853,-1.22534 1.56091,-3.02903 1.56091,-4.00825 0,-0.97921 0.37572,-1.78037 0.835,-1.78037 0.45921,0 0.89152,-0.56341 0.96065,-1.25203 0.0691,-0.68861 0.57554,-3.28031 1.1253,-5.75932 2.10225,-9.47978 0.82651,-26.47908 -2.45979,-32.77724 -0.79789,-1.52918 -1.45353,-3.34537 -1.45691,-4.03598 -0.018,-3.69095 -8.44589,-15.92033 -15.90281,-23.07629 -6.54293,-6.27884 -16.99045,-13.91672 -18.41948,-13.46591 -0.4133,0.13038 -0.75145,-0.16482 -0.75145,-0.65599 0,-0.49117 -1.20427,-1.1952 -2.6762,-1.56451 -1.47194,-0.36933 -3.78707,-1.54501 -5.14479,-2.61265 -2.66899,-2.09881 -6.6996,-2.57215 -7.72864,-0.9076 -0.35145,0.56846 -2.74511,2.01631 -5.31927,3.21746 -2.57416,1.20115 -7.27281,3.64132 -10.44136,5.4226 -3.16863,1.78128 -5.76804,2.92513 -5.77645,2.54187 -0.008,-0.38326 -0.34657,-0.24538 -0.75145,0.30638 -0.40488,0.55178 -2.08872,1.66235 -3.74191,2.46796 -1.65318,0.80561 -4.16046,2.23979 -5.57168,3.18708 -1.4113,0.94729 -3.77836,2.02653 -5.26013,2.39833 -1.48186,0.37179 -2.69424,1.0094 -2.69424,1.4169 0,0.40751 -1.9162,1.5857 -4.25823,2.61824 -2.34196,1.03253 -4.48359,2.1236 -4.75915,2.42462 -0.27555,0.30101 -5.38066,3.01123 -11.34475,6.0227 -5.96409,3.01149 -11.2669,5.98514 -11.78412,6.60816 -1.11102,1.33821 -0.79361,82.14721 0.32124,81.80416 0.40578,-0.12484 3.33643,1.28175 6.51257,3.12576 3.17614,1.84401 7.46556,3.95231 9.53204,4.6851 2.06648,0.73279 3.75723,1.6252 3.75723,1.98314 0,0.35794 3.49424,1.42245 7.76494,2.36556 4.27077,0.94312 8.44131,2.11076 9.2679,2.59477 2.13659,1.25104 27.05211,1.24752 27.05211,-0.004 z m -91.17568,-56.0908 c 0,-14.32319 -0.21537,-26.04217 -0.47868,-26.04217 -0.60243,0 -35.29,18.10961 -43.10528,22.50431 -2.20422,1.2395 -4.34585,2.06525 -4.75914,1.83501 -0.4133,-0.23024 -0.75145,0.27802 -0.75145,1.12948 0,0.85145 1.46532,2.22119 3.25625,3.04385 1.791,0.82265 3.93262,1.92042 4.75921,2.43948 2.54448,1.59784 9.28023,5.01954 14.27751,7.25288 2.61752,1.16982 4.75914,2.51757 4.75914,2.99503 0,0.47744 0.56359,0.87084 1.25244,0.87424 0.68878,0.003 2.60497,0.74902 4.25815,1.65694 10.24486,5.62646 15.12093,8.17882 15.7804,8.26028 0.4133,0.0511 0.75145,-11.62614 0.75145,-25.94933 z m -67.07639,-18.55989 c 3.27729,-1.85186 5.95868,-3.13543 5.95868,-2.85238 0,0.28304 1.30947,-0.41752 2.90998,-1.55682 1.60051,-1.1393 3.34319,-2.07145 3.87258,-2.07145 0.52947,0 2.07347,-0.87352 3.43119,-1.94116 1.35771,-1.06763 3.67285,-2.24332 5.14478,-2.61263 1.47186,-0.36932 2.67621,-1.09995 2.67621,-1.62364 0,-0.52368 0.45087,-0.67358 1.0019,-0.33311 0.55112,0.34048 1.00198,0.2018 1.00198,-0.30815 0,-0.50996 2.14163,-1.86996 4.75915,-3.02222 2.61751,-1.15226 8.81696,-4.37028 13.77651,-7.15114 9.29804,-5.21347 17.12526,-9.05011 18.46352,-9.05011 0.41998,0 1.51499,-0.83006 2.43341,-1.84455 1.50928,-1.66729 1.64462,-5.6865 1.40769,-41.81771 l -0.26211,-39.97313 -7.01356,-3.66451 c -3.8574,-2.01548 -8.81696,-4.6155 -11.02118,-5.77781 -2.2043,-1.16233 -7.84015,-4.09957 -12.52415,-6.52722 -4.684,-2.42765 -9.07997,-4.91612 -9.76882,-5.52992 -0.68885,-0.6138 -1.25244,-0.88702 -1.25244,-0.60716 0,0.27987 -2.66831,-1.05454 -5.92967,-2.96537 -3.26128,-1.91083 -6.23506,-3.47423 -6.60838,-3.47423 -0.37324,0 -1.9881,-0.93214 -3.58861,-2.07144 -1.60051,-1.1393 -2.90998,-1.83986 -2.90998,-1.55682 0,0.28305 -2.81793,-1.09809 -6.26204,-3.06919 -3.44418,-1.97111 -7.38928,-3.58384 -8.76691,-3.58384 -1.37763,0 -5.32273,1.61273 -8.76692,3.58384 -3.4441,1.9711 -6.26203,3.35224 -6.26203,3.06919 0,-0.28304 -1.30948,0.41752 -2.90998,1.55682 -1.60051,1.1393 -3.21537,2.07144 -3.58862,2.07144 -0.37332,0 -3.34709,1.5634 -6.60838,3.47423 -3.26135,1.91083 -5.93658,3.15033 -5.945,2.75447 -0.008,-0.39587 -0.34664,-0.22438 -0.75145,0.38112 -0.40488,0.60549 -4.5685,3.03005 -9.25257,5.38791 -4.68401,2.35786 -10.77073,5.574 -13.52603,7.14698 -5.73225,3.27245 -13.32956,6.89746 -14.45577,6.89746 -0.41997,0 -1.515,0.83005 -2.4334,1.84455 -1.50933,1.66729 -1.64462,5.6865 -1.40769,41.81771 l 0.26211,39.97313 6.7644,3.50567 c 3.72042,1.92813 8.90541,4.65745 11.5222,6.06515 2.61679,1.40771 8.59017,4.54319 13.27418,6.96775 4.68407,2.42458 8.66765,4.76879 8.8525,5.20935 0.18486,0.44057 0.74845,0.54627 1.25237,0.23488 0.50399,-0.31139 0.91639,-0.1377 0.91639,0.38598 0,0.52369 1.20434,1.25432 2.6762,1.62364 1.47194,0.36931 3.78707,1.545 5.14479,2.61263 1.35771,1.06764 2.90171,1.94116 3.43118,1.94116 0.5294,0 2.15936,0.85192 3.62213,1.89314 1.46269,1.04123 3.11032,1.99102 3.66143,2.11064 0.93277,0.20248 3.58027,1.50198 11.02118,5.40968 3.49836,1.83721 4.583,1.5843 12.57705,-2.93281 z M 153.79989,255.81254 c -0.008,-15.01181 -0.34659,-26.83977 -0.75145,-26.28436 -0.40486,0.55539 -5.2448,3.30865 -10.75541,6.11834 -5.51062,2.80969 -11.82278,6.14991 -14.02702,7.42268 -2.20425,1.27278 -5.81119,3.1556 -8.01544,4.18403 -2.20425,1.02842 -4.68402,2.31018 -5.51062,2.84837 -0.82659,0.53817 -3.41908,1.85824 -5.7611,2.9335 -2.34201,1.07527 -4.2582,2.41125 -4.2582,2.96887 0,0.55761 1.69075,1.84041 3.75723,2.85068 2.06649,1.01027 4.65899,2.35644 5.76111,2.99152 1.10212,0.63505 3.80733,1.99653 6.01158,3.02551 2.20425,1.02896 5.81119,2.91222 8.01544,4.185 2.20424,1.27277 8.5164,4.61667 14.02702,7.43088 5.51061,2.8142 10.16959,5.45478 10.35327,5.86795 0.18369,0.41316 0.52185,0.75121 0.75145,0.75121 0.22961,0 0.41057,-12.28238 0.40214,-27.29418 z m 215.93124,20.66682 c 5.51067,-2.8097 11.82283,-6.14991 14.02705,-7.42268 2.20422,-1.27278 5.81117,-3.1556 8.01547,-4.18403 2.20422,-1.02842 4.68399,-2.31018 5.51059,-2.84837 0.82659,-0.53817 3.41908,-1.85824 5.76112,-2.9335 2.34196,-1.07527 4.25815,-2.43779 4.25815,-3.02784 0,-0.59005 -1.91619,-1.95705 -4.25815,-3.03775 -2.34204,-1.08073 -8.31605,-4.14233 -13.2756,-6.80356 -4.95955,-2.66123 -13.75149,-7.27875 -19.53764,-10.26113 -5.78614,-2.98238 -10.8515,-5.87693 -11.25638,-6.43232 -0.40488,-0.55541 -0.73612,11.38524 -0.73612,26.53476 0,15.14952 0.33124,27.09017 0.73612,26.53476 0.40488,-0.55539 5.2448,-3.30865 10.75539,-6.11834 z M 82.523518,240.2513 c 1.462723,-0.98392 4.012099,-2.44806 5.665283,-3.25367 1.653185,-0.80561 3.231225,-1.69082 3.506758,-1.96715 0.275533,-0.27631 4.558784,-2.53068 9.518341,-5.0097 4.95955,-2.47901 9.2428,-4.75615 9.51834,-5.0603 0.80728,-0.89112 7.71578,-3.95429 8.9183,-3.95429 0.60555,0 1.10099,-0.38228 1.10099,-0.84951 0,-0.46721 1.91619,-1.69428 4.25821,-2.72681 2.342,-1.03253 4.48363,-2.14023 4.75916,-2.46156 0.81917,-0.95535 10.45643,-5.37531 11.27172,-5.16959 0.41329,0.1043 0.75144,-0.20641 0.75144,-0.69047 0,-0.48405 1.46533,-1.46421 3.25627,-2.17813 1.79096,-0.7139 4.5012,-2.15505 6.02276,-3.20253 l 2.76649,-1.90453 -0.26167,-40.73991 c -0.16944,-26.38275 -0.61474,-40.71286 -1.26358,-40.66315 -0.55106,0.0422 -3.22455,-1.23333 -5.94109,-2.83456 -2.71655,-1.60125 -6.77436,-3.63303 -9.01738,-4.5151 -2.24301,-0.88208 -4.30363,-1.91215 -4.57917,-2.28908 -0.64324,-0.87993 -12.96686,-3.95992 -15.84441,-3.95992 -1.20468,0 -2.19033,-0.45073 -2.19033,-1.00162 0,-0.61638 -5.00965,-1.00163 -13.02509,-1.00163 -7.1638,0 -13.025091,0.34795 -13.025091,0.77321 0,0.42525 -2.988402,1.33992 -6.640895,2.03257 -3.652494,0.69266 -9.07628,2.37301 -12.052854,3.73411 -2.976581,1.36109 -5.849463,2.47471 -6.384193,2.47471 -0.534737,0 -0.972238,0.47734 -0.972238,1.06074 0,0.58341 -0.412364,0.80596 -0.91636,0.49456 -0.503996,-0.31139 -1.067581,-0.21716 -1.252407,0.2094 -0.184834,0.42656 -2.591916,2.20793 -5.349067,3.95861 -5.281211,3.35335 -15.201483,13.07864 -14.775112,14.48471 0.137763,0.45432 -0.211547,0.82603 -0.776245,0.82603 -0.564705,0 -1.455283,1.12683 -1.979065,2.50405 -0.523781,1.37724 -1.440968,2.50406 -2.038189,2.50406 -0.597228,0 -0.807212,0.45073 -0.466634,1.00162 0.340571,0.55089 0.141746,1.00162 -0.441836,1.00162 -0.583581,0 -1.061059,0.67609 -1.061059,1.50243 0,0.82635 -0.450868,1.50244 -1.001935,1.50244 -0.551059,0 -0.92912,0.33804 -0.840133,0.75122 0.08898,0.41316 -0.361882,2.02005 -1.001928,3.57088 -0.640053,1.55081 -1.163729,3.46641 -1.163729,4.25688 0,0.79048 -0.375724,1.43723 -0.834941,1.43723 -0.459217,0 -0.892096,0.56341 -0.961958,1.25202 -0.06988,0.68862 -0.645967,3.73106 -1.280226,6.76095 -1.723422,8.23285 -0.67102,24.523 1.956807,30.28966 1.167238,2.56146 2.122253,5.13429 2.122253,5.71739 0,3.46953 8.613716,15.8861 15.936121,22.97173 6.434826,6.22675 16.869607,13.81279 18.379986,13.36217 0.413296,-0.12331 0.751448,0.19072 0.751448,0.69783 0,0.50712 1.239888,1.20017 2.755302,1.54009 1.515422,0.33994 3.882482,1.49254 5.260133,2.56137 3.134013,2.43145 5.465935,2.48379 8.862703,0.19892 z M 191.11489,182.58252 c 5.66061,-2.9536 14.1244,-7.45432 18.80842,-10.00163 4.68403,-2.54731 10.88347,-5.81762 13.77654,-7.26737 2.89308,-1.44974 5.26014,-3.00926 5.26014,-3.4656 0,-0.88822 -3.34635,-2.9058 -9.01737,-5.43678 -1.92874,-0.86079 -4.63396,-2.24258 -6.01158,-3.07067 -1.37763,-0.82808 -4.53374,-2.48513 -7.01352,-3.68233 -2.47978,-1.1972 -4.65897,-2.53601 -4.84266,-2.97514 -0.18369,-0.43913 -0.85999,-0.8012 -1.50289,-0.80459 -0.64291,-0.004 -2.52153,-0.74767 -4.17472,-1.65394 -5.97093,-3.27323 -15.80272,-8.35611 -16.16323,-8.35611 -0.20274,0 -0.36861,11.71897 -0.36861,26.04216 0,14.32319 0.21542,26.04217 0.47873,26.04217 0.26329,0 5.11014,-2.41658 10.77075,-5.37017 z m -60.58122,277.82345 c -3.16128,-0.41055 -6.49936,-1.37007 -7.41799,-2.13218 -0.9186,-0.76218 -1.93906,-1.33408 -2.26765,-1.2709 -3.05203,0.58662 -14.4407,-7.77359 -18.37308,-13.48734 -1.76269,-2.5612 -3.034717,-4.65671 -2.826732,-4.65671 0.207979,0 -0.594545,-2.19821 -1.783395,-4.88501 -2.35829,-5.32967 -3.160363,-19.6547 -1.10048,-19.6547 0.583582,0 0.835452,-0.36492 0.559716,-0.81094 -0.275744,-0.44603 0.810932,-3.41175 2.414822,-6.59052 2.519409,-4.9932 7.229509,-10.40671 13.503939,-15.52056 2.21692,-1.80686 10.97597,-5.12338 13.53105,-5.12338 1.09621,0 1.99311,-0.45073 1.99311,-1.00162 0,-0.59355 3.67374,-1.00162 9.01737,-1.00162 5.59609,0 9.01737,0.39667 9.01737,1.04552 0,0.57505 0.56358,0.94682 1.2524,0.82616 1.60218,-0.28062 8.60486,1.80438 11.46921,3.4149 3.71641,2.08959 13.32856,10.96739 13.32856,12.31027 0,0.69686 0.33815,1.41726 0.75145,1.6009 0.4133,0.18362 1.85779,2.73182 3.20997,5.66264 2.07778,4.50351 2.43905,6.72228 2.3327,14.32652 -0.0817,5.84152 -0.59264,9.56001 -1.4566,10.6007 -0.73192,0.88163 -1.21435,1.87175 -1.07208,2.20025 0.14229,0.32851 -0.38427,1.34798 -1.17009,2.26545 -0.78584,0.91753 -1.16526,1.93167 -0.84315,2.25365 0.3221,0.32204 0.0596,0.58549 -0.58327,0.58549 -0.64291,0 -1.17757,0.56341 -1.18814,1.25198 -0.0258,1.67506 -6.14735,8.60924 -9.12498,10.33628 -2.25564,1.30824 -5.62846,2.90901 -12.3973,5.88382 -4.0052,1.76026 -13.68393,2.49201 -20.77673,1.57095 z m 13.32454,-24.15866 c 5.72365,-2.71705 8.63871,-6.07407 9.45171,-10.8847 1.87948,-11.1211 -5.09799,-17.7582 -17.71014,-16.8462 -5.81486,0.42047 -6.43275,0.71375 -10.02163,4.75666 -3.39601,3.82565 -3.82469,4.89643 -3.82469,9.55359 0,6.38572 2.22918,9.64162 8.89518,12.99215 5.89357,2.96228 7.74554,3.0223 13.20957,0.4285 z M 365.22245,130.75917 c -7.31001,-1.09492 -13.02507,-2.8987 -13.02507,-4.11093 0,-0.62149 -0.26939,-0.86068 -0.5986,-0.53154 -1.2574,1.25698 -10.50494,-5.61717 -14.04839,-10.4428 -4.53709,-6.1789 -7.51011,-11.86329 -6.80293,-13.00719 0.29021,-0.46941 0.0173,-0.85348 -0.60702,-0.85348 -0.79623,0 -0.98695,-2.614177 -0.63948,-8.764177 0.58651,-10.38093 0.73003,-11.26824 1.82286,-11.26824 0.45921,0 0.83494,-0.69848 0.83494,-1.55218 0,-5.45865 14.32063,-21.12553 18.6637,-20.41824 0.35746,0.0582 0.95629,-0.38974 1.33074,-0.99544 0.88716,-1.43496 13.2493,-4.03826 19.28199,-4.06053 11.09648,-0.041 24.14987,5.1632 30.14845,12.01966 7.08736,8.10084 8.72566,10.70245 8.72566,13.85578 0,1.0921 0.54969,2.16878 1.2214,2.39263 1.83061,0.61 1.57684,18.682557 -0.27841,19.828797 -0.76227,0.47094 -1.08013,1.16194 -0.70636,1.53556 2.07828,2.07765 -12.80218,20.46368 -16.56198,20.46368 -0.86146,0 -2.17228,0.60583 -2.91298,1.34631 -3.45118,3.45012 -17.1415,5.86651 -25.84852,4.56233 z m 15.38942,-25.5891 c 3.25828,-2.40752 6.65309,-8.422827 6.65309,-11.788757 0,-4.38789 -2.57138,-9.16405 -6.57877,-12.21969 -3.22319,-2.45769 -4.70076,-2.88649 -9.94669,-2.88649 -4.53183,0 -6.62476,0.46353 -7.91447,1.75283 -0.96441,0.96407 -2.05934,1.75593 -2.43326,1.75969 -1.94219,0.0195 -5.1886,6.95886 -5.1886,11.09086 0,4.86822 3.87852,11.939577 6.54864,11.939577 0.80676,0 1.46683,0.41768 1.46683,0.9282 0,2.68229 13.59271,2.23199 17.39323,-0.57622 z"
     id="path12"
     inkscape:connector-curvature="0" />
</svg>
