<?xml version="1.0" encoding="UTF-8" standalone="no"?>
<!-- Created with Inkscape (http://www.inkscape.org/) -->

<svg
   xmlns:dc="http://purl.org/dc/elements/1.1/"
   xmlns:cc="http://creativecommons.org/ns#"
   xmlns:rdf="http://www.w3.org/1999/02/22-rdf-syntax-ns#"
   xmlns:svg="http://www.w3.org/2000/svg"
   xmlns="http://www.w3.org/2000/svg"
   xmlns:sodipodi="http://sodipodi.sourceforge.net/DTD/sodipodi-0.dtd"
   xmlns:inkscape="http://www.inkscape.org/namespaces/inkscape"
   version="1.1"
   id="svg2"
   width="512"
   height="512"
   viewBox="0 0 512.00001 512.00001"
   sodipodi:docname="pratico.jpg.svg"
   inkscape:version="0.92.5 (2060ec1f9f, 2020-04-08)">
  <metadata
     id="metadata8">
    <rdf:RDF>
      <cc:Work
         rdf:about="">
        <dc:format>image/svg+xml</dc:format>
        <dc:type
           rdf:resource="http://purl.org/dc/dcmitype/StillImage" />
        <dc:title></dc:title>
      </cc:Work>
    </rdf:RDF>
  </metadata>
  <defs
     id="defs6" />
  <sodipodi:namedview
     pagecolor="#ffffff"
     bordercolor="#666666"
     borderopacity="1"
     objecttolerance="10"
     gridtolerance="10"
     guidetolerance="10"
     inkscape:pageopacity="0"
     inkscape:pageshadow="2"
     inkscape:window-width="1864"
     inkscape:window-height="1016"
     id="namedview4"
     showgrid="false"
     inkscape:zoom="0.19915288"
     inkscape:cx="538.0819"
     inkscape:cy="254.30567"
     inkscape:window-x="56"
     inkscape:window-y="27"
     inkscape:window-maximized="1"
     inkscape:current-layer="svg2" />
  <path
     style="fill:#000000;stroke-width:1.59912539"
     d="M 124.83984 0 C 124.63336 0 122.73336 1.0833765 120.58594 2.328125 C 96.014546 16.94039 84.202766 31.117865 79.660156 51.466797 C 78.958116 54.713966 78.753077 57.367586 78.587891 65.59375 C 78.381409 75.172902 78.422118 75.820909 79.248047 77.552734 C 79.702307 78.526885 80.570284 79.663564 81.148438 79.988281 C 85.030304 82.31542 94.981015 78.581982 101.79492 72.25 C 104.93345 69.327548 109.97284 62.454241 112.24414 57.908203 C 114.39156 53.632763 117.61266 45.028002 119.14062 39.507812 C 121.16416 31.985202 123.14564 21.106585 123.26953 16.560547 C 123.35213 14.12517 123.80746 9.6330716 124.26172 6.4941406 C 125.25283 0.053920225 125.2528 -2.3684758e-15 124.83984 0 z M 250.71484 0 C 249.94328 0 249.29871 4.700764 249.2832 10.443359 C 249.2455 24.179558 246.17068 37.18033 236.26562 65.548828 C 224.73021 98.586673 221.42786 114.79851 223.64258 130.45703 A 84.285847 78.862875 0 0 1 258.11133 123.44336 A 84.285847 78.862875 0 0 1 294.66797 131.35352 C 301.20836 106.79581 301.37394 75.730763 294.19336 47.695312 C 291.74921 38.152515 289.80033 34.374426 284.20508 28.361328 C 276.31274 19.879604 252.84029 -9.4739031e-15 250.71484 0 z M 387.36133 0 C 387.15485 0 387.11271 0.43284638 387.19531 0.91992188 C 387.97994 4.9247649 389.21904 16.128019 388.88867 15.857422 C 387.85626 15.045629 389.96278 27.547373 392.56445 37.830078 C 395.5378 49.411651 399.50173 58.557398 404.70508 65.701172 C 411.02344 74.414411 418.86965 79.773012 426.26172 80.476562 C 432.20841 81.071877 433.44837 79.284798 433.86133 69.759766 C 435.14152 40.751713 422.21422 20.078503 391.86133 2.4355469 C 389.54873 1.0825594 387.52652 2.9605947e-16 387.36133 0 z M 58.765625 16.126953 L 56.658203 21.214844 C 50.050771 37.396574 46.293593 50.54829 44.765625 62.779297 C 43.857103 69.923071 44.228184 86.591846 45.425781 92.923828 C 46.95375 101.36647 50.38238 109.86323 53.892578 114.13867 C 55.420547 115.97873 55.997983 116.35742 57.443359 116.35742 C 60.912261 116.35742 64.958564 111.16164 68.179688 102.55664 C 70.409695 96.603503 72.433887 87.295002 72.103516 84.697266 C 71.897033 83.452517 71.938879 83.235332 72.310547 83.884766 C 72.640919 84.5342 72.722107 84.42614 72.515625 83.34375 C 72.433035 82.586077 72.475435 79.663823 72.640625 76.849609 C 73.260071 67.541055 72.185389 57.583347 69.335938 46.542969 C 67.642781 39.832151 63.927861 28.791394 61.037109 21.755859 L 58.765625 16.126953 z M 453.55859 16.126953 L 451.24609 21.701172 C 445.71236 35.285166 441.70766 49.356106 440.17969 60.396484 C 438.9408 69.48856 439.22956 83.722736 440.79883 91.732422 C 442.73976 101.63629 447.44682 111.91941 451.53516 115.2207 C 452.36109 115.87013 453.6004 116.35742 454.63281 116.35742 C 457.48226 116.35742 460.33217 112.29748 463.75977 103.42188 C 465.65941 98.496985 467.64092 89.297842 467.31055 86.970703 C 467.14536 85.942433 467.22821 85.563387 467.55859 85.833984 C 467.84766 86.104582 467.88785 85.995455 467.72266 85.5625 C 467.51618 85.183663 467.64088 82.479094 467.88867 79.556641 C 469.33404 64.673778 465.28667 44.865026 456.16016 22.513672 L 453.55859 16.126953 z M 222.30078 60.828125 C 221.99612 60.543076 216.93884 65.713868 211.06055 72.310547 C 185.01522 101.53879 177.13705 118.03692 178.56836 140.36914 C 179.08912 148.49424 181.38451 155.97831 185.23047 162.85938 A 84.285847 78.862875 0 0 1 211.13086 136.9043 C 207.76236 118.01435 210.28215 95.922651 218.73828 72.660156 C 220.99954 66.439491 222.60558 61.113329 222.30078 60.828125 z M 313.23438 64.962891 C 312.96366 64.962891 313.07308 73.039972 313.47656 82.902344 C 314.31784 103.46643 312.07206 121.97867 307.00781 138.14258 A 84.285847 78.862875 0 0 1 327.88477 158.19531 C 335.66084 140.74756 335.52842 117.86997 327.25 94.759766 C 322.76019 82.226023 314.63747 64.96289 313.23438 64.962891 z M 116.16602 69.273438 C 115.95954 69.273438 112.86261 70.571727 109.22852 72.195312 C 100.39108 76.091916 96.839229 77.985571 91.759766 81.449219 C 77.553787 91.298968 68.883233 103.8008 65.662109 119.0625 C 64.670995 123.93325 63.721239 135.18973 64.216797 136.70508 C 64.629761 138.00395 64.712329 138.32915 64.794922 139.35742 C 64.877512 141.08925 67.065208 143.41665 68.964844 143.84961 C 71.070963 144.33669 77.802952 143.68679 79.207031 142.875 C 79.702588 142.6044 80.115234 142.44254 80.115234 142.55078 C 80.115234 142.65902 78.009317 144.82357 75.490234 147.36719 C 61.036476 161.70886 53.273296 174.86053 50.134766 190.23047 C 49.556616 193.15293 49.349609 195.96603 49.349609 202.40625 C 49.349609 207.00641 49.514502 211.49989 49.679688 212.41992 C 49.88617 213.61055 49.887013 213.82578 49.556641 213.23047 C 49.267566 212.63516 49.225439 213.33888 49.390625 215.66602 C 50.299147 226.76052 54.801143 227.95052 65.662109 219.88672 C 69.709162 216.91015 73.219479 213.17671 75.697266 209.17188 C 77.927274 205.54586 81.559641 196.56226 83.128906 190.77148 C 84.574282 185.46777 86.433888 174.37359 86.103516 172.75 C 85.93833 171.82997 86.021193 171.55809 86.351562 171.88281 C 86.72323 172.15341 86.764794 171.88431 86.599609 170.91016 C 86.434423 170.20661 86.599316 166.90537 86.929688 163.6582 C 87.260058 160.41103 87.63197 153.86213 87.755859 149.09961 C 88.044934 139.46634 88.250537 136.86751 88.746094 137.08398 C 89.448134 137.30046 94.569344 131.88986 97.583984 127.72266 C 102.62215 120.74124 106.37986 112.56857 110.26172 100.12109 C 113.19377 90.704312 114.84632 82.586964 113.60742 83.615234 C 113.19446 83.885832 114.67964 76.253956 115.83594 71.978516 C 116.53798 69.326661 116.53769 69.273434 116.16602 69.273438 z M 396.19727 69.347656 C 396.09403 69.367951 396.0332 69.43473 396.0332 69.542969 C 396.0332 69.867685 397.43799 76.363013 398.80078 82.478516 C 398.96596 83.182069 398.88145 83.344816 398.50977 83.074219 C 398.09681 82.749502 398.01451 83.289481 398.17969 85.5625 C 398.67525 91.786242 404.82961 110.45807 409.20703 119.11719 C 410.36333 121.39021 412.6333 125.12403 414.28516 127.45117 C 417.42369 131.88897 423.70117 138.49255 423.70117 137.41016 C 423.70117 137.03132 423.78432 136.8689 423.9082 137.03125 C 424.15598 137.30185 425.10575 160.789 425.06445 165.06445 C 425.02315 167.12099 425.14705 167.71665 425.35352 166.95898 C 425.6013 166.25542 425.64175 166.79716 425.47656 168.3125 C 425.22879 171.28908 426.96477 182.81571 428.69922 189.63477 C 430.30978 195.96675 433.94242 205.16703 436.37891 209.17188 C 438.85669 213.17672 442.36701 216.91015 446.41406 219.88672 C 453.0215 224.75747 456.98622 226.11211 459.58789 224.32617 C 461.36364 223.13554 462.68556 219.3471 462.39648 216.31641 C 462.27259 215.07166 462.31332 214.42194 462.47852 214.80078 C 462.68501 215.17961 462.81027 214.36691 462.85156 212.85156 C 462.85156 211.44446 462.89229 206.95212 462.93359 202.94727 C 463.05748 193.53048 461.81793 186.38721 458.7207 178.43164 C 455.1692 169.23133 446.70298 157.16346 437.24609 147.80078 C 432.04274 142.65943 430.10286 140.54836 432.49805 142.55078 C 433.61305 143.52493 440.63354 144.39081 443.11133 143.84961 C 445.01097 143.41665 447.19866 141.08925 447.28125 139.35742 C 447.40514 137.84208 447.44697 137.57163 447.77734 137.13867 C 448.27289 136.48924 448.10801 129.23656 447.44727 124.41992 C 445.878 112.45951 442.20317 103.69282 435.01758 94.708984 C 427.54293 85.346311 414.57433 76.470793 400.20312 70.896484 C 398.55127 70.24705 396.9004 69.597906 396.61133 69.435547 C 396.44614 69.354368 396.30051 69.327361 396.19727 69.347656 z M 483.16797 89.892578 C 483.04409 89.892578 481.9303 91.623715 480.69141 93.734375 C 474.74472 103.8006 473.38042 106.18173 470.86133 111.21484 C 463.1389 126.69302 459.79462 140.06043 460.125 154.56445 C 460.1663 158.19046 460.41489 161.05884 460.58008 160.89648 C 460.74526 160.73412 460.78627 161.27553 460.62109 162.0332 C 460.00165 165.33449 462.68544 177.40339 465.28711 183.08594 C 467.02156 186.82018 468.67316 188.33594 471.06836 188.33594 C 473.38096 188.33594 476.89158 184.81812 480.48438 179.02734 C 483.58161 173.88598 485.56383 169.17833 487.0918 163.2793 C 489.15662 155.2155 489.56863 149.74928 489.52734 133.67578 C 489.48604 124.15075 489.32259 121.5519 488.41406 115.32812 C 487.34036 108.07614 483.58094 89.838458 483.16797 89.892578 z M 29.072266 90.033203 C 28.900516 89.975529 28.873539 90.278319 28.783203 90.650391 C 26.264119 101.69077 25.521803 105.20776 24.613281 110.67383 C 22.754941 122.03892 22.175488 129.72433 22.505859 138.81641 C 22.671045 143.25421 22.794922 147.52944 22.794922 148.28711 C 22.836222 154.18614 24.695773 163.76504 26.925781 169.66406 C 29.320975 175.8878 33.656098 182.92332 37.125 186.22461 C 39.644083 188.60587 41.627695 188.98466 43.816406 187.52344 C 45.303079 186.49517 47.366844 182.32779 48.853516 177.45703 C 51.290007 169.44734 51.826453 164.41595 51.785156 150.45312 C 51.785156 143.63406 51.620289 141.251 50.876953 137.625 C 48.399166 125.55635 43.360596 113.48808 34.564453 98.767578 C 30.532887 92.033082 29.450114 90.160085 29.072266 90.033203 z M 264.61133 129.94141 C 251.31056 129.84971 234.73544 131.50297 227.25 134.19727 C 210.13278 140.35842 193.18281 155.67864 188.95703 168.81641 L 186.64648 176.01172 L 207.04688 176.01172 A 59.028275 59.472095 0 0 1 259.10742 144.51562 A 59.028275 59.472095 0 0 1 311.03906 175.82812 C 334.27894 175.17156 329.78408 172.53436 324.40039 162.42578 C 317.12804 148.77107 298.17287 135.585 279.55859 131.21484 C 276.0271 130.38574 270.65713 129.98306 264.61133 129.94141 z M 7.1855469 169.93555 C 7.0203611 169.93555 7.1023922 173.29065 7.2675781 177.34961 C 7.4740603 181.46269 7.640625 186.44094 7.640625 188.44336 C 7.640625 190.39166 7.7218138 191.85458 7.8457031 191.58398 C 7.9695924 191.3675 8.0934691 192.77436 8.1347656 194.72266 C 8.2173586 199.59342 10.034799 211.55236 11.810547 218.58789 C 16.18797 236.23085 23.786628 248.35478 34.771484 255.17383 C 42.411327 259.93635 45.962584 257.39283 46.582031 246.62305 C 46.747216 244.18767 46.871375 238.01748 46.830078 232.98438 C 46.830078 224.05465 46.78828 223.62157 45.466797 218.64258 C 41.70882 204.24679 33.862765 192.3407 20.152344 180.32617 C 16.600849 177.18724 7.5159185 169.93555 7.1855469 169.93555 z M 505.13867 169.93555 C 504.97348 169.93555 502.82545 171.50482 500.34766 173.45312 C 478.62573 190.609 468.09525 206.19489 465.57617 225.13672 C 464.91542 230.27807 464.95615 242.40113 465.6582 244.89062 C 465.86468 245.54005 465.82424 245.7575 465.53516 245.54102 C 464.87442 244.99983 466.07222 252.41303 466.93945 254.36133 C 468.7152 258.36617 472.14176 258.47391 478.00586 254.68555 C 487.33886 248.62416 494.15383 238.72203 498.53125 224.70508 C 501.21552 216.10008 504.02262 200.62072 503.56836 197.04883 C 503.44447 195.96644 503.48687 195.37117 503.69336 195.75 C 503.89984 196.07472 504.02344 195.3167 504.02344 193.85547 C 504.06474 192.44836 504.27147 187.90353 504.56055 183.73633 C 504.84962 179.56913 505.13783 174.75136 505.26172 173.01953 C 505.38561 171.34183 505.30386 169.93555 505.13867 169.93555 z M 314.66211 184.07227 A 59.028275 59.472095 0 0 1 318.05859 201.83008 C 326.86772 201.46741 329.30685 200.8394 330.5957 199.74805 C 334.36008 196.56057 334.50034 190.31194 330.88672 186.57617 C 329.47057 185.11212 327.09145 184.41515 314.66211 184.07227 z M 203.56055 184.08008 C 190.96615 184.40823 187.68986 185.04382 186.20312 186.30273 C 182.43875 189.49017 182.30655 195.74659 185.91992 199.48242 C 187.26413 200.87211 189.36477 201.57181 200.17969 201.93164 A 59.028275 59.472095 0 0 1 203.56055 184.08008 z M 426.7168 199.48438 L 426.26172 202.13672 C 423.61874 217.23606 422.7938 227.19399 422.95898 241.21094 C 423.04158 247.4888 423.16517 252.57504 423.28906 252.4668 C 423.41295 252.35856 423.53711 253.65824 423.53711 255.33594 C 423.61971 259.12431 425.27168 267.45933 426.96484 272.33008 C 430.10337 281.47628 436.5854 290.6754 442.69727 294.73438 C 446.41395 297.16974 449.30601 295.87076 451.12305 291 C 453.35306 284.99274 454.05497 278.28212 454.01367 263.29102 C 454.01367 256.20136 453.84826 254.52399 452.89844 249.92383 C 450.00769 236.12336 442.98681 221.51177 432.00195 206.62891 L 426.7168 199.48438 z M 85.441406 199.70117 C 85.27622 199.70117 83.254288 202.29914 80.900391 205.49219 C 64.464403 228.16826 57.112962 247.92178 58.021484 267.08008 C 58.145374 270.32725 58.351001 274.98202 58.433594 277.36328 C 58.722669 284.77765 60.830539 292.78745 63.060547 294.68164 C 65.910002 297.17113 69.171086 295.87062 74.457031 290.24219 C 79.453902 284.83024 83.046774 278.71548 85.359375 271.51758 C 87.05253 266.21387 88.414892 259.44927 88.580078 255.17383 C 88.662668 253.38789 88.953393 249.00353 89.201172 245.43164 C 89.696729 238.88318 89.530727 229.73796 88.746094 221.89062 C 88.126647 215.4504 85.771778 199.70117 85.441406 199.70117 z M 317.95117 207.6875 A 59.028275 59.472095 0 0 1 314.07617 225.48438 C 326.0069 225.14981 329.14432 224.51354 330.59961 223.28125 C 334.36398 220.09383 334.49618 213.8374 330.88281 210.10156 C 329.58723 208.76215 327.76085 208.05856 317.95117 207.6875 z M 200.20898 207.69531 C 190.13856 208.04718 187.56739 208.68598 186.20703 209.83789 C 182.44266 213.02536 182.30044 219.27201 185.91406 223.00781 C 187.40208 224.54615 189.90029 225.24038 204.10156 225.5625 A 59.028275 59.472095 0 0 1 200.20898 207.69531 z M 310.25586 233.57227 A 59.028275 59.472095 0 0 1 259.10742 263.45898 A 59.028275 59.472095 0 0 1 208.05859 233.70117 C 182.24692 234.25467 186.8487 236.7305 192.40234 247.1582 C 199.67469 260.8129 218.62987 274.00093 237.24414 278.37109 C 248.54491 281.0242 278.6648 279.3057 289.55273 275.38672 C 306.66994 269.22556 323.61799 253.90344 327.84375 240.76562 L 330.15625 233.57227 L 310.25586 233.57227 z M 0.2734375 246.49414 C 0.10308964 246.50091 -1.8503717e-16 246.54187 0 246.62305 C 0 246.73129 0.74354098 248.78671 1.6933594 251.16797 C 3.6342926 256.30932 4.2533699 258.31242 3.7578125 257.93359 C 3.1383658 257.39239 3.0142081 260.04485 3.5097656 262.64258 C 4.7899555 269.19104 14.452858 287.97015 20.523438 295.54688 C 25.644196 301.9871 32.129559 307.5614 36.341797 309.13086 C 37.828469 309.67206 38.364711 309.99634 37.580078 309.83398 C 36.795446 309.67162 34.358351 309.1849 32.210938 308.75195 C 27.379252 307.83192 17.634432 306.85742 12.513672 306.85742 L 8.671875 306.85742 L 10.861328 311.29492 C 13.834673 317.35631 13.833729 317.35679 13.296875 316.92383 C 12.553539 316.32852 12.222912 319.14356 12.759766 321.4707 C 13.792177 326.01674 23.539919 341.81961 29.445312 348.63867 C 33.368476 353.13059 38.611738 357.72999 41.998047 359.73242 C 46.045099 362.05956 50.009954 363.68221 51.992188 363.73633 L 53.892578 363.79102 L 52.033203 364.22461 C 51.000792 364.4952 46.913678 365.36004 42.949219 366.17188 C 38.98476 366.98365 35.639514 367.74137 35.515625 367.84961 C 35.433035 367.95785 35.514221 368.22883 35.720703 368.44531 C 36.835707 369.47358 41.420227 376.23934 40.800781 375.96875 C 40.057444 375.64403 39.644531 376.5093 39.644531 378.51172 C 39.644531 380.56826 41.83271 384.35737 45.466797 388.63281 C 50.102362 394.08113 54.448118 398.52515 58.638672 402.07617 L 58.638672 460.26953 C 58.638672 464.05411 60.334071 467.34898 62.880859 469.19531 C 64.875027 470.82253 66.697682 471.11133 71.5 471.11133 C 86.492642 471.11133 109.51396 478.00542 132.73828 489.45117 C 144.29746 495.14796 158.12075 500.25825 172.42188 504.23242 C 172.45642 504.37818 172.48798 504.52608 172.53711 504.66406 C 173.19785 506.55824 175.63428 507.96619 180.30078 509.21094 C 190.66611 511.96119 199.66894 512.6579 207.50195 511.28516 C 214.17491 511.95452 220.93518 512.13591 227.36133 511.88281 L 227.48633 512 L 257.56641 512 C 280.68335 512 289.79755 511.55962 294.60938 508.16211 C 304.49099 512.91417 316.72459 513.23205 331.77539 509.21094 C 336.44189 507.96619 338.87832 506.55824 339.53906 504.66406 C 340.11721 503.04047 339.66271 500.76864 338.71289 500.49805 C 338.34122 500.33569 339.45667 499.6854 341.23242 498.92773 L 344.45312 497.62891 L 340.61328 493.24609 C 325.66396 476.30669 314.92629 468.35107 303.36328 465.69922 C 298.98586 464.72507 295.35314 464.7237 291.09961 465.75195 C 290.74015 465.83047 290.31612 465.9474 289.88672 466.07031 C 289.46185 465.02789 288.89848 463.83175 288.27148 462.69727 C 288.17934 462.53055 288.09621 462.34258 288.00586 462.17188 C 300.93885 461.99221 313.56147 451.41188 322.9375 432.79297 C 327.48011 423.86325 332.10574 411.41728 332.35352 407.62891 C 332.47741 405.46413 332.43613 404.76065 332.06445 405.03125 C 331.61019 405.41008 331.94131 404.2185 334.25391 396.75 C 335.41021 393.06988 335.53462 392.3658 335.03906 392.41992 C 334.83258 392.41992 331.98144 393.28562 328.67773 394.25977 C 320.34282 396.73493 313.27517 399.61697 307.30859 403.0293 C 307.04271 400.69348 306.53889 398.32149 305.76758 395.91406 C 304.0085 390.42364 304.03568 390.14606 306.77734 386.23242 C 310.67084 380.67392 312.27148 374.98802 312.27148 366.70117 C 312.27148 351.09654 305.81068 338.81768 294.32617 332.59375 L 287.62891 328.96484 L 287.62891 328.96289 L 283.22266 328.96289 C 285.1445 318.89119 288.14584 309.02156 292.83203 295.20508 L 298.41211 278.73828 L 291.32812 281.58008 C 273.57572 288.70007 248.90029 289.31461 230.03125 283.10938 C 224.85376 281.40675 220.40813 280.20548 220.16016 280.4375 C 219.91233 280.66953 221.8857 287.34504 224.54102 295.26953 C 229.18503 309.12916 232.10498 318.98264 233.9375 329.39453 L 232.47852 329.42188 L 206.62695 301.31641 C 200.67788 297.01152 194.20233 294.87667 187.41992 294.98633 C 185.70239 295.01403 183.96554 295.1862 182.21289 295.50195 C 169.1337 297.85828 162.9937 301.99692 146.81836 319.35938 C 140.30794 326.34758 133.1715 333.42928 129.02539 337.0918 C 127.4265 331.12079 125.31634 324.77234 122.65039 317.95117 C 120.91594 313.45925 119.05779 309.02242 118.60352 307.99414 L 117.73633 306.09961 L 114.39062 315.0293 C 109.05873 329.26315 106.12398 340.01637 104.87695 350.73242 C 101.21481 352.14812 97.503862 353.3451 93.826172 354.29297 C 96.482079 350.16125 98.890665 345.24841 100.26758 340.57422 C 101.67166 335.86583 103.03378 327.85608 102.66211 326.61133 C 102.53823 326.12426 102.62135 324.5011 102.86914 322.93164 C 103.07562 321.41629 103.2832 316.59909 103.2832 312.26953 C 103.3245 303.881 102.66218 296.89897 100.92773 287.64453 C 99.564971 280.23016 96.096277 265.72656 95.724609 265.72656 C 95.518127 265.72656 93.453226 269.08222 91.140625 273.19531 C 78.545208 295.27606 72.847619 314.16437 73.714844 330.94141 C 73.838734 333.91798 74.04436 338.51668 74.126953 341.22266 C 74.329292 347.21545 75.332182 352.06438 77.431641 356.78906 C 74.877604 356.8678 72.853667 356.95867 71.072266 357.07227 C 71.083986 356.94691 71.105136 356.82927 71.113281 356.70117 C 71.154581 355.61878 71.483239 354.9157 71.9375 354.69922 C 72.887318 354.32039 72.888735 354.37421 71.443359 348.5293 C 66.983343 330.72398 58.847983 319.63043 45.013672 312.70312 C 43.320518 311.89135 42.576696 311.34993 43.361328 311.56641 C 44.145961 311.83701 46.747384 311.99805 49.142578 311.99805 C 52.487591 311.99805 53.810215 311.78306 55.007812 311.02539 C 56.618375 309.943 58.021777 306.91208 57.691406 305.23438 C 57.567516 304.58495 57.773971 304.15064 58.269531 303.98828 C 59.219349 303.66356 59.218226 302.85361 58.433594 297.2793 C 55.91451 279.96108 48.151203 266.53785 35.96875 258.41992 C 29.485207 254.14448 19.697478 250.46581 8.4648438 248.13867 C 4.8307556 247.43511 1.4447762 246.73072 0.94921875 246.56836 C 0.68079183 246.51424 0.44378536 246.48738 0.2734375 246.49414 z M 511.35938 246.67578 C 511.00319 246.67578 510.52792 246.7316 510.01172 246.83984 C 500.43094 248.78814 496.21867 249.8153 491.63477 251.38477 C 471.64729 257.98735 460.20725 270.11023 455.29297 289.91797 C 454.21926 294.19341 452.93888 303.0152 453.31055 303.71875 C 453.39315 303.98935 453.88921 304.15096 454.38477 304.20508 C 454.88033 304.20508 455.04461 304.36889 454.79688 304.53125 C 454.09483 304.85596 454.13752 306.58767 454.88086 308.42773 C 455.91327 311.07959 457.97861 311.99805 463.14062 311.99805 C 465.6597 311.99805 468.2611 311.78289 468.92188 311.56641 C 469.62392 311.29581 468.38403 312.05351 466.19531 313.24414 C 460.579 316.22071 455.87126 320.06195 452.11328 324.66211 C 446.82734 331.15645 443.15216 338.8968 440.88086 348.42188 C 439.55937 353.88795 439.56021 354.37401 440.75781 355.02344 C 441.25337 355.29404 441.45872 355.51172 441.21094 355.51172 C 440.88057 355.56582 440.83872 356.16093 441.00391 357.35156 C 441.62336 360.92345 442.698 362.49314 444.88672 363.14258 C 446.16691 363.52141 446.1669 363.52042 445.17578 363.79102 C 444.59763 363.95338 442.20184 364.49534 439.80664 364.98242 C 426.50919 367.74251 416.971 376.12967 410.32227 390.9043 C 409.28986 393.17732 408.17412 395.88384 407.84375 396.91211 C 407.2656 398.69806 407.265 398.69747 408.79297 399.83398 C 409.6189 400.48341 410.07367 401.02539 409.86719 401.02539 C 409.24774 401.02539 409.16432 403.13543 409.70117 405.24609 C 410.27932 407.5191 412.8403 410.00901 415.07031 410.49609 C 415.97883 410.71257 416.68053 410.98356 416.55664 411.0918 C 416.47404 411.20004 414.28527 410.92848 411.68359 410.44141 C 405.32394 409.25078 395.37155 409.63114 391.2832 411.14648 C 382.36317 414.50189 375.13699 421.10352 368.77734 431.71094 L 367.08398 434.52539 L 368.73633 436.25781 C 370.14041 437.71904 370.34627 438.15167 369.97461 439.01758 C 369.27257 440.80353 369.93436 443.61842 371.54492 445.7832 C 373.52715 448.32682 379.63819 452.11356 384.30469 453.62891 C 389.13638 455.19837 397.47861 455.30692 402.64062 453.8457 C 415.02956 450.38205 435.26367 436.09529 435.26367 430.8457 C 435.26367 429.27623 434.5212 427.43561 433.98438 427.81445 C 433.7779 428.03093 433.61328 428.03207 433.61328 427.92383 C 433.61328 427.76147 435.01582 426.35405 436.70898 424.73047 C 438.40213 423.161 439.80664 421.69946 439.80664 421.53711 C 439.80664 421.37475 438.9409 420.83277 437.86719 420.3457 C 423.45473 413.85136 420.43967 412.44481 421.84375 412.76953 C 424.28024 413.41896 431.79507 413.20298 434.64453 412.44531 C 443.23419 410.11817 452.69216 403.89318 460.91016 395.01758 C 470.8626 384.2478 473.87704 379.16163 471.85352 376.50977 C 471.31666 375.86034 471.60508 375.21088 473.95898 371.85547 C 475.44565 369.69069 476.60212 367.90508 476.51953 367.79688 C 476.35434 367.68863 472.10007 366.71361 461.69336 364.54883 C 458.80261 363.8994 458.51471 363.79045 460.08398 363.73633 C 462.06621 363.68223 466.03136 362.05956 470.03711 359.73242 C 475.77732 356.37701 483.16773 348.79957 488.66016 340.68164 C 492.95499 334.34966 497.95224 325.58261 498.94336 322.66016 C 499.81058 320.11654 499.81058 317.30362 498.94336 317.57422 C 498.28262 317.73657 498.53168 317.08571 501.33984 311.29492 L 503.4043 307.12891 L 500.42969 306.96484 C 496.67171 306.74837 485.4807 307.72368 480.27734 308.75195 C 472.88528 310.15905 472.8866 310.15831 475.48828 309.23828 C 479.32885 307.83118 485.56368 302.74416 490.56055 296.79102 C 498.53076 287.37423 509.84658 264.04987 508.85547 259.125 C 508.77287 258.5838 508.52485 258.31225 508.31836 258.47461 C 507.82281 258.85345 508.4416 256.85172 510.42383 251.65625 C 511.37365 249.22087 512.07673 247.05632 511.99414 246.83984 C 511.95284 246.7316 511.71555 246.67578 511.35938 246.67578 z M 416.68359 265.61328 C 416.44419 265.76985 415.58967 268.56168 414.69922 272.11328 C 412.79958 279.69001 410.89988 289.37721 409.82617 296.8457 C 409.08283 301.93293 408.66934 324.93378 409.33008 324.39258 C 409.49527 324.23022 409.53599 324.82606 409.41211 325.74609 C 409.08173 327.91087 410.28062 335.43287 411.80859 340.57422 C 414.90582 351.12753 424.07264 364.22461 428.32617 364.22461 C 430.68007 364.22461 433.44801 360.43663 435.63672 354.21289 C 437.82543 348.1515 438.4029 342.08951 438.32031 326.61133 C 438.27901 320.11699 438.11443 317.62796 437.37109 314.00195 C 434.64553 300.36383 428.86367 286.13002 419.90234 270.97656 C 418.29178 268.21646 416.84655 265.83561 416.72266 265.61914 C 416.71233 265.60561 416.69955 265.60284 416.68359 265.61328 z M 394.50586 306.09961 L 392.77148 310.1582 C 387.65072 322.01038 383.27268 335.37927 381.37305 344.9043 C 379.76248 353.07635 379.43191 357.56804 379.67969 367.95898 C 379.96877 380.7853 381.28916 387.27838 385.29492 395.9375 C 390.91124 408.11439 394.91886 409.52191 399.95703 401.1875 C 403.83889 394.63904 407.01867 384.24856 407.43164 376.67188 C 407.51424 374.72357 407.76032 370.66351 407.9668 367.63281 C 409.04051 352.0464 405.65468 335.16158 396.98242 312.59375 L 394.50586 306.09961 z M 471.24414 310.69727 C 471.49773 310.72771 471.60631 310.84893 471.48242 310.9707 C 471.35853 311.13306 470.98634 311.18776 470.69727 311.02539 C 470.3669 310.86303 470.49104 310.69922 470.94531 310.69922 C 471.05888 310.68569 471.15961 310.68712 471.24414 310.69727 z M 188.61914 314.95898 C 190.18609 314.93128 191.66775 315.15565 193.04883 315.63867 C 198.59087 317.57686 204.57463 325.19931 208.55078 335.38477 C 214.36423 350.27695 211.36967 349.25391 249.14844 349.25391 C 284.5064 349.25391 287.70682 349.74997 291.46875 355.83398 C 292.55387 357.58889 293.7713 361.21981 294.17578 363.90039 C 295.06465 369.79073 293.12808 374.21136 287.01172 380.25 C 283.27161 383.94226 282.77943 385.06619 283.33008 388.66211 C 283.67974 390.94501 285.04073 394.26082 286.35352 396.0293 C 289.11789 399.75343 290.54529 406.32209 289.41211 410.10547 C 288.97965 411.54936 285.77844 415.00712 282.29883 417.79102 L 275.97461 422.85352 L 276.22656 433.68555 C 276.52525 446.41355 275.05347 449.54355 264.58984 458.42383 C 258.43114 463.65081 258.29102 463.90799 258.29102 470.23633 C 258.29102 479.43146 255.44303 484.63947 248.32812 488.47266 C 242.90886 491.39235 241.33111 491.61951 227.20703 491.52539 C 196.29814 491.31938 165.86007 483.84737 134.10352 468.66406 C 114.58145 459.33027 91.578676 452.73106 76.533203 451.45117 L 76.533203 376.36133 C 77.219064 376.32803 77.801161 376.29992 78.570312 376.26172 C 86.986576 375.84365 95.868893 374.55224 101.64258 372.9043 C 122.37702 366.98613 144.26547 352.67866 158.05469 336.03516 C 169.19967 322.58332 180.15766 315.1091 188.61914 314.95898 z M 369.64453 344.74219 C 369.52064 344.74219 366.58777 348.31359 363.16016 352.69727 C 351.22549 368.06721 345.19797 379.32382 341.93555 392.3125 C 340.61406 397.72445 339.6632 406.43763 340.07617 410.17188 C 340.20006 411.52486 340.40569 415.09569 340.48828 418.07227 C 340.77736 427.16434 343.21474 436.8528 345.81641 439.01758 C 348.99624 441.61532 353.91072 438.42141 360.14648 429.81641 C 364.02835 424.5127 366.58781 419.04808 368.61133 411.9043 C 370.1393 406.54647 371.3792 399.23995 371.04883 397.72461 C 370.88365 397.12929 370.96677 396.69531 371.25586 396.69531 C 371.58623 396.69531 371.66881 396.26214 371.54492 395.55859 C 371.42103 394.96327 371.58536 391.39188 371.95703 387.60352 C 372.36999 382.78688 372.49334 378.29583 372.32812 372.61328 C 372.03906 362.27645 370.34657 344.74219 369.64453 344.74219 z M 417.9707 411.35938 C 418.22429 411.38981 418.33287 411.51104 418.20898 411.63281 C 418.08509 411.79517 417.7129 411.84988 417.42383 411.6875 C 417.09345 411.52514 417.21758 411.36328 417.67188 411.36328 C 417.78544 411.34976 417.88618 411.34919 417.9707 411.35938 z M 419.62305 411.90039 C 419.87663 411.93084 419.98521 412.05206 419.86133 412.17383 C 419.73744 412.33619 419.36525 412.3909 419.07617 412.22852 C 418.7458 412.06616 418.86996 411.9043 419.32422 411.9043 C 419.43778 411.89077 419.53852 411.89024 419.62305 411.90039 z M 348.10938 442.41016 C 346.29773 442.42379 344.62867 442.58935 343.29688 442.91406 C 336.89592 444.53764 330.20615 448.38013 324.87891 453.52148 L 322.11328 456.22656 L 323.76367 459.15039 C 325.29164 461.80224 325.4152 462.17965 324.96094 463.47852 C 324.09371 465.96802 325.12709 468.94495 328.26562 473.00391 C 340.159 488.53621 357.09132 491.89244 380.71289 483.50391 C 388.14625 480.85206 390.62307 478.68631 390.04492 475.22266 C 389.92103 474.35675 389.46737 473.54574 389.0957 473.4375 C 388.72403 473.32926 389.83753 472.463 391.61328 471.54297 L 394.87695 469.91992 L 389.67383 464.94141 C 377.11971 452.87277 366.96107 446.16024 357.46289 443.5625 C 354.54633 442.78453 351.12873 442.38743 348.10938 442.41016 z M 281.35352 469.87109 C 280.60943 470.31541 279.84533 470.79095 279.09766 471.27148 C 279.41608 470.84251 279.77158 470.38425 280.15234 469.91016 C 280.52777 469.89592 281.00314 469.88659 281.35352 469.87109 z "
     id="path817" />
</svg>
