<?xml version="1.0" encoding="UTF-8" standalone="no"?>
<svg
   xmlns:dc="http://purl.org/dc/elements/1.1/"
   xmlns:cc="http://creativecommons.org/ns#"
   xmlns:rdf="http://www.w3.org/1999/02/22-rdf-syntax-ns#"
   xmlns:svg="http://www.w3.org/2000/svg"
   xmlns="http://www.w3.org/2000/svg"
   xmlns:sodipodi="http://sodipodi.sourceforge.net/DTD/sodipodi-0.dtd"
   xmlns:inkscape="http://www.inkscape.org/namespaces/inkscape"
   viewBox="0 0 512 512"
   version="1.1"
   id="svg9"
   sodipodi:docname="engenhoso.svg"
   inkscape:version="0.92.5 (2060ec1f9f, 2020-04-08)">
  <metadata
     id="metadata15">
    <rdf:RDF>
      <cc:Work
         rdf:about="">
        <dc:format>image/svg+xml</dc:format>
        <dc:type
           rdf:resource="http://purl.org/dc/dcmitype/StillImage" />
        <dc:title />
      </cc:Work>
    </rdf:RDF>
  </metadata>
  <defs
     id="defs13" />
  <sodipodi:namedview
     pagecolor="#ffffff"
     bordercolor="#666666"
     borderopacity="1"
     objecttolerance="10"
     gridtolerance="10"
     guidetolerance="10"
     inkscape:pageopacity="0"
     inkscape:pageshadow="2"
     inkscape:window-width="1864"
     inkscape:window-height="1016"
     id="namedview11"
     showgrid="false"
     inkscape:zoom="0.73997248"
     inkscape:cx="120.38613"
     inkscape:cy="151.97466"
     inkscape:window-x="56"
     inkscape:window-y="27"
     inkscape:window-maximized="1"
     inkscape:current-layer="svg9" />
  <path
     style="opacity:1;fill:#000000;fill-opacity:1;stroke:none;stroke-width:8.93304253;stroke-linecap:round;stroke-linejoin:round;stroke-miterlimit:4;stroke-dasharray:none;stroke-opacity:1;paint-order:stroke fill markers"
     d="M 231.00586 0.00390625 C 230.78813 0.01738535 230.58059 0.067943635 230.38086 0.14648438 C 225.53591 -0.41247771 221.59641 7.8801401 218.8457 25.033203 C 217.50541 33.390976 216.13501 37.66099 213.71289 39.574219 C 212.69564 39.711146 211.53999 39.550149 210.17188 39.136719 C 207.9084 38.452715 205.6325 35.679833 201.09961 28.078125 C 192.04901 12.90014 185.41297 6.973469 181.42969 10.236328 C 179.77417 10.007581 178.40687 10.895947 177 12.630859 C 174.74627 15.410087 174.34961 18.332219 174.34961 32.152344 C 174.34961 45.302923 173.90488 48.89431 172.01953 50.974609 C 171.55375 51.488541 171.09676 51.914193 170.63672 52.263672 C 170.62872 52.264972 170.62148 52.266278 170.61328 52.267578 C 167.68342 52.723688 166.22575 51.616787 157.16406 42.070312 C 146.30822 30.633716 138.26848 25.732957 135.27344 28.726562 C 135.03429 28.965601 134.82681 29.323669 134.63477 29.736328 C 134.00879 29.789748 133.4059 29.929162 132.81836 30.154297 C 129.76494 31.324316 130.06704 44.989187 133.41211 57.035156 C 136.29936 67.432414 135.77925 70.517058 130.68359 73.240234 C 130.65829 73.253774 130.63272 73.262231 130.60742 73.275391 C 127.62497 72.734803 123.68443 70.484043 117.98242 66.287109 C 107.55035 58.608639 98.362701 54.876171 94.279297 56.542969 C 93.280621 56.696177 92.64741 57.324082 91.773438 58.517578 C 88.780451 62.604837 89.586383 65.37155 102.05859 93.904297 C 103.02313 96.110896 95.891415 103.22879 93.681641 102.26562 C 65.107614 89.81142 62.339249 89.01133 58.246094 92 C 57.628832 92.450702 57.1612 92.834468 56.832031 93.242188 C 53.105393 96.315468 56.203259 104.94445 66.337891 118.94141 C 70.343923 124.47415 72.445919 128.13454 72.925781 130.95508 C 70.266796 135.8302 67.183994 136.32932 56.787109 133.61133 C 44.256863 130.33564 30.976544 130.02647 29.839844 132.98438 C 29.60075 133.60654 29.464982 134.24859 29.419922 134.91797 C 28.084237 135.92626 27.743785 137.52278 27.976562 139.74609 C 28.349083 143.30416 30.135122 145.65153 39.912109 155.42383 C 49.215437 164.72271 51.443468 167.57736 51.582031 170.38086 C 51.593771 170.61841 51.588291 170.83559 51.587891 171.05859 C 51.379711 171.35044 51.164911 171.63385 50.9375 171.88477 C 48.934729 174.09461 46.309031 174.45508 32.244141 174.45508 C 15.379283 174.45508 9.6210938 176.08044 9.6210938 180.83984 C 9.6210938 181.21492 9.7233174 181.63584 9.8945312 182.08984 C 9.5977433 182.48706 9.3367305 182.90603 9.1328125 183.36328 C 7.8014399 186.34868 17.681168 195.79759 28.568359 201.95117 C 37.741495 207.13595 39.679024 209.69707 38.207031 214.95703 C 36.427612 216.48869 32.345583 217.66626 24.712891 218.88672 C 10.738989 221.12117 1.7633734 224.31374 0.54492188 227.48438 C 0.20060757 228.38035 0.06230735 229.26068 0.1328125 230.13477 C -0.02276973 230.74554 0.024158245 231.46319 0.17382812 232.42969 C 0.94897707 237.43516 3.4759004 238.82091 32.480469 250.18164 C 34.724159 251.06024 34.718668 261.13491 32.474609 262.01562 C 3.4590664 273.40436 0.93232034 274.79261 0.15234375 279.79883 C 0.09024938 280.19737 0.050122965 280.54884 0.029296875 280.87305 C -0.008872365 281.16474 -0.012141 281.45141 0.02734375 281.72852 C 0.67298699 286.25984 10.391476 290.56377 24.478516 292.56055 C 33.378689 293.82211 36.180515 294.58792 38.011719 296.69336 C 38.027629 296.74346 38.045067 296.78872 38.060547 296.83984 C 39.699639 302.25871 37.912828 304.78215 28.560547 310.25391 C 17.382959 316.79362 7.7737102 325.9625 9.0625 328.85742 C 9.2627449 329.30722 9.5207767 329.72049 9.8125 330.11328 C 9.6999874 330.45184 9.6210937 330.7699 9.6210938 331.04492 C 9.6210938 335.62824 14.06322 336.83292 31.972656 337.10938 C 46.116196 337.32767 49.556063 337.70795 51.183594 339.49219 C 51.352368 340.14683 51.46881 340.82167 51.5 341.45312 C 51.64716 344.43122 50.044988 346.54182 40.099609 356.48242 C 28.174346 368.40197 25.254074 373.62091 28.621094 376.98633 C 28.827631 377.19277 29.109459 377.37019 29.423828 377.53711 C 30.400288 382.06931 39.530569 382.32218 55.75 378.22656 C 64.34136 376.05714 67.915532 375.70531 70.001953 376.82031 C 71.178423 377.44903 72.071064 378.10187 72.693359 378.84766 C 72.791979 379.22488 72.878547 379.62159 72.945312 380.05273 C 73.295452 382.31376 71.335939 386.14363 66.207031 393.22266 C 57.906742 404.67895 53.819701 413.2797 55.201172 416.38281 C 55.555077 417.17777 56.022207 417.84343 56.603516 418.38477 C 56.623276 418.44027 56.637013 418.49759 56.658203 418.55273 C 58.078486 422.24856 69.560069 420.29581 82.753906 414.11328 C 94.9244 408.41031 96.737511 408.42697 100.63672 414.29102 C 102.24177 416.70487 101.92832 418.26033 98.298828 425.92383 C 95.994373 430.78953 93.139147 438.10385 91.953125 442.17773 C 89.968259 448.99557 90.091039 452.98044 92.490234 454.30859 C 92.699675 454.61732 92.930827 454.89481 93.208984 455.10352 C 96.871192 457.85133 106.79042 454.03067 118.16406 445.48633 C 126.3792 439.3148 128.49561 438.3163 131.88086 439.01953 C 132.07672 439.06023 132.25246 439.11441 132.4375 439.16211 C 135.89216 441.92401 136.02718 444.48409 133.31055 454.93164 C 130.06849 467.3999 129.83757 480.69845 132.8418 481.84961 C 133.27307 482.01487 133.74038 482.10044 134.23438 482.13086 C 134.4255 482.5747 134.63615 482.95268 134.88281 483.19922 C 138.12525 486.44011 142.11712 484.15179 154.97656 471.68945 C 165.75935 461.23961 168.14023 459.44484 170.69336 459.83984 C 171.01798 459.89004 171.32467 459.95015 171.61914 460.01758 C 173.4608 462.19788 173.88349 467.38405 174.34961 479.59766 C 174.95835 495.54865 175.41119 498.30431 177.70312 499.97656 C 178.62122 500.64641 179.5882 500.9743 180.61133 500.99219 C 180.77214 501.1801 180.93495 501.36669 181.10742 501.53906 C 184.88736 505.3172 191.7985 499.17238 200.88086 483.95703 C 205.42112 476.35092 207.69877 473.57484 209.96289 472.88867 C 211.62927 472.38363 212.98708 472.24181 214.15039 472.58008 C 216.42986 474.62935 217.86815 478.87156 218.67578 485.70312 C 219.94682 496.45461 222.81478 505.83403 225.85938 509.19336 C 227.19468 510.66673 229.09492 511.87305 230.08008 511.87305 C 230.10468 511.87305 230.13125 511.86623 230.15625 511.86523 C 233.79888 513.25218 240.45254 503.81331 245.36133 490.24609 C 249.93263 477.61177 251.22712 476.34373 258.13281 477.73438 C 260.97541 478.30683 261.85587 479.62917 264.71094 487.61328 C 266.52367 492.68256 269.6773 499.87094 271.7207 503.58984 C 275.35557 510.20514 278.40883 512.87502 281.17578 511.60352 C 286.05331 512.38673 289.92341 503.80993 292.83789 485.86328 C 293.84397 479.6681 295.13935 475.41972 296.83789 473.08984 C 297.24483 472.98749 297.67404 472.90411 298.14453 472.84961 C 302.59208 472.33456 304.48869 474.02318 309.98828 483.38086 C 316.51641 494.48865 325.76051 504.05342 328.69922 502.74414 C 329.33517 502.46079 329.90734 502.0053 330.42773 501.40234 C 335.59782 502.16021 337.89473 494.12719 337.50977 476.90039 C 337.2852 466.85123 337.70217 462.07368 339.68555 459.95703 C 342.63282 459.40491 346.39902 462.50185 356.45508 471.81445 C 368.16998 482.66326 370.44046 484.29093 373.24414 483.85352 C 374.60709 483.64088 375.67669 483.04049 376.4707 482.0332 C 382.18677 481.50243 382.67527 473.2543 378.2793 455.35547 C 375.34348 443.40184 375.32671 442.89706 377.79297 440.17578 C 378.31176 439.60335 378.81566 439.12731 379.32617 438.74219 C 382.4243 438.42528 386.53552 440.40175 392.12109 444.80469 C 400.62596 451.50883 409.28703 456.11234 413.81641 456.33594 C 415.80294 456.43404 417.9987 455.94433 418.69531 455.24805 C 418.87689 455.06655 419.02026 454.80561 419.14648 454.50977 C 422.26411 452.69519 420.36413 442.09848 414.55469 429.25391 C 408.89562 416.74192 408.84943 412.91862 414.32422 410.42773 C 416.87337 409.26796 419.19665 409.74509 425.81641 412.78711 C 442.6694 420.53171 452.50247 422.55798 454.82031 418.7793 C 458.5074 415.73615 455.123 406.99913 444.66992 392.50195 C 440.80403 387.14043 438.69074 383.07807 438.4043 380.19922 C 438.92012 379.21421 439.81449 378.35337 441.08594 377.52148 C 444.28744 375.42681 445.37866 375.47679 456.13672 378.19336 C 473.06678 382.46842 481.84364 381.93278 482.32031 376.86719 C 486.389 373.71776 482.30261 366.42963 469.91797 354.5918 C 462.1364 347.15381 459.13863 343.4653 459.48633 340.4668 C 461.09923 337.55762 465.76857 336.97175 477.22852 337.33008 C 494.00687 337.85469 500.99219 336.04642 500.99219 331.18164 C 500.99219 331.07061 500.9759 330.95879 500.9707 330.84766 C 504.91094 326.42179 499.47305 320.21013 483.50781 310.54297 C 472.97532 304.16542 472.60312 303.81963 472.42188 300.15234 C 472.38837 299.47485 472.40069 298.85874 472.46289 298.28906 C 474.16898 295.58398 478.73395 293.98241 487.61719 292.61914 C 500.01261 290.71688 510.44202 286.8042 511.67578 283.59375 C 512.00897 282.72668 512.0579 281.83497 511.83203 280.92188 C 512.48936 277.41278 503.71337 271.35866 490.69141 266.44727 C 477.8383 261.5996 475.09795 258.92957 477.20703 253.29883 C 478.18911 250.67707 480.17292 249.37135 487.00586 246.84375 C 504.21597 240.47752 512.60744 235.01022 511.7832 230.7207 C 512.0238 230.05869 512.07901 229.44496 511.875 228.91406 C 510.3307 224.89549 504.81703 222.47132 491.83984 220.10156 C 479.34805 217.82043 474.59574 216.48552 472.73242 214.4082 C 472.54174 213.45889 472.58965 212.37863 472.85352 211.11523 C 473.63542 207.37138 474.44373 206.63569 483.97266 200.95312 C 499.72215 191.56094 505.35998 184.77085 500.99023 180.9375 C 500.99027 180.9275 500.99219 180.9178 500.99219 180.9082 C 500.99219 175.65484 496.70496 174.45508 477.94922 174.45508 C 465.6982 174.45508 461.16377 174.04052 459.56836 171.47461 C 459.0196 168.36918 461.9924 164.64658 469.97656 157.15039 C 482.21178 145.66294 485.87318 139.44968 482.43164 136.00977 C 482.41504 135.99317 482.39561 135.97929 482.37891 135.96289 C 482.71033 134.21966 482.32453 132.91075 481.11914 132.14844 C 477.16516 129.64798 460.39987 131.43169 445.80078 135.90625 C 443.77318 136.52769 440.58103 134.30257 438.84961 131.68555 C 438.85061 128.66178 441.03845 124.53126 445.69141 118.19336 C 453.11055 108.08757 457.71718 97.950697 456.31836 94.808594 C 455.97008 94.026279 455.43482 93.399884 454.72266 92.925781 C 453.51376 90.323195 449.48782 90.137917 442.46094 92.177734 C 438.38116 93.362037 431.12411 96.181267 426.33398 98.443359 C 419.15035 101.83577 417.03892 102.28984 414.28125 101.03516 C 408.71796 98.504028 408.7576 94.902493 414.48242 82.720703 C 420.55404 69.801016 422.47287 58.340668 418.80078 56.933594 C 418.79478 56.931194 418.78755 56.930234 418.78125 56.927734 C 418.51196 56.499942 418.18047 56.183202 417.77734 56.003906 C 413.84243 54.253804 408.2297 56.435455 397.37695 63.931641 C 386.73628 71.281359 382.46456 73.651646 379.68164 73.400391 C 378.65037 72.809727 377.81002 71.760169 377.00586 70.259766 C 375.88926 68.17636 376.24346 64.60627 378.41602 56.027344 C 383.07682 37.623043 382.14375 28.758365 375.89844 29.552734 C 372.2453 26.140404 368.26316 28.475483 355.26172 41.470703 C 347.49313 49.235564 343.87881 52.378711 341.0918 52.453125 C 340.65718 52.208517 340.21357 51.927268 339.74609 51.585938 C 337.35173 49.837725 337.10319 48.024035 337.44922 34.869141 C 337.86376 19.109693 335.64579 9.9648437 331.41016 9.9648438 C 331.11126 9.9648438 330.7621 10.049268 330.39258 10.171875 C 329.56355 9.383435 328.6215 9.0804797 327.57227 9.3164062 C 323.00745 10.342844 312.41738 23.451426 305.25977 36.933594 C 304.23702 38.860042 300.212 39.525709 297.0957 38.802734 C 295.09668 36.4581 293.77694 31.947512 292.61523 24.298828 C 290.52624 10.544862 286.23041 1.0176317 281.83789 0.39257812 C 281.72525 0.37654793 281.60981 0.3881165 281.49609 0.3828125 C 278.71091 -0.9680021 275.63244 1.697635 271.95898 8.375 C 269.91197 12.095888 266.77705 19.218074 264.99023 24.203125 C 262.31059 31.679081 261.13835 33.494792 258.30078 34.556641 C 252.5763 36.698805 250.05426 34.122848 245.48438 21.462891 C 240.9402 8.8760639 234.72488 -0.22633021 231.00586 0.00390625 z M 256 53.404297 C 367.83981 53.404297 458.5957 144.16019 458.5957 256 C 458.5957 367.83981 367.83981 458.5957 256 458.5957 C 144.16019 458.5957 53.404297 367.83981 53.404297 256 C 53.404297 144.16019 144.16019 53.404297 256 53.404297 z M 256 61.902344 C 148.75237 61.902344 61.902344 148.75237 61.902344 256 C 61.902344 363.24763 148.75237 450.09766 256 450.09766 C 363.24763 450.09766 450.09766 363.24763 450.09766 256 C 450.09766 148.75237 363.24763 61.902344 256 61.902344 z M 245.48828 73.675781 L 245.48828 200.63086 A 56.41611 56.389074 0 0 0 244.50586 200.81055 L 195.95898 83.666016 A 182.78341 182.69582 0 0 1 245.48828 73.675781 z M 266.51172 73.832031 A 182.78341 182.69582 0 0 1 316.04297 83.664062 L 267.47461 200.85547 A 56.41611 56.389074 0 0 0 266.51172 200.63867 L 266.51172 73.832031 z M 176.51367 91.650391 L 225.0957 208.87891 A 56.41611 56.389074 0 0 0 224.24414 209.40039 L 134.55859 119.75781 A 182.78341 182.69582 0 0 1 176.51367 91.650391 z M 335.45703 91.722656 A 182.78341 182.69582 0 0 1 377.4707 119.72852 L 287.71875 209.4375 A 56.41611 56.389074 0 0 0 286.91016 208.85742 L 335.45703 91.722656 z M 119.66406 134.58789 L 209.41602 224.29492 A 56.41611 56.389074 0 0 0 208.83789 225.10352 L 91.644531 176.58203 A 182.78341 182.69582 0 0 1 119.66406 134.58789 z M 392.30859 134.61719 A 182.78341 182.69582 0 0 1 420.42969 176.55273 L 303.14453 225.10938 A 56.41611 56.389074 0 0 0 302.62305 224.25977 L 392.30859 134.61719 z M 83.580078 195.98633 L 200.83008 244.53125 A 56.41611 56.389074 0 0 0 200.61328 245.49414 L 73.744141 245.49414 A 182.78341 182.69582 0 0 1 83.580078 195.98633 z M 428.41797 195.98828 A 182.78341 182.69582 0 0 1 438.41211 245.49414 L 311.39648 245.49414 A 56.41611 56.389074 0 0 0 311.2168 244.51172 L 428.41797 195.98828 z M 254.82031 221.26953 C 272.7798 220.85339 290.20508 234.79332 290.20508 255.99805 C 290.20508 269.21879 282.72551 281.23279 271.08203 286.71289 C 264.73092 289.70212 255.65623 291.29117 251.08203 290.2168 C 221.54127 283.27851 211.11926 251.83753 231.58594 231.40039 C 238.3825 224.61366 246.6569 221.45868 254.82031 221.26953 z M 256.5293 241.90625 C 255.78584 241.90525 255.01875 241.93128 254.23047 241.98828 C 248.41549 242.40856 247.79793 242.70309 244.20898 246.74414 C 240.8129 250.56804 240.38477 251.63795 240.38477 256.29297 C 240.38477 262.67571 242.61317 265.93031 249.2793 269.2793 C 255.17299 272.24022 257.02609 272.30159 262.49023 269.70898 C 268.214 266.99318 271.12839 263.63655 271.94141 258.82812 C 273.70346 248.40688 267.68131 241.92464 256.5293 241.90625 z M 73.589844 266.50781 L 200.60547 266.50781 A 56.41611 56.389074 0 0 0 200.78516 267.48828 L 83.582031 316.01172 A 182.78341 182.69582 0 0 1 73.589844 266.50781 z M 311.38867 266.50781 L 438.25781 266.50781 A 182.78341 182.69582 0 0 1 428.41992 316.01367 L 311.17188 267.46875 A 56.41611 56.389074 0 0 0 311.38867 266.50781 z M 208.85742 286.89062 A 56.41611 56.389074 0 0 0 209.37891 287.74219 L 119.69336 377.38477 A 182.78341 182.69582 0 0 1 91.570312 335.44727 L 208.85742 286.89062 z M 303.16602 286.89648 L 420.35742 335.41797 A 182.78341 182.69582 0 0 1 392.33789 377.41406 L 302.58594 287.70508 A 56.41611 56.389074 0 0 0 303.16602 286.89648 z M 224.28125 302.5625 A 56.41611 56.389074 0 0 0 225.08984 303.14062 L 176.54297 420.2793 A 182.78341 182.69582 0 0 1 134.5293 392.27148 L 224.28125 302.5625 z M 287.75586 302.59961 L 377.44141 392.24219 A 182.78341 182.69582 0 0 1 335.48633 420.35156 L 286.9043 303.12109 A 56.41611 56.389074 0 0 0 287.75586 302.59961 z M 244.52539 311.14453 A 56.41611 56.389074 0 0 0 245.48828 311.36133 L 245.48828 438.16992 A 182.78341 182.69582 0 0 1 195.95703 428.33789 L 244.52539 311.14453 z M 267.49414 311.19141 L 316.04102 428.33594 A 182.78341 182.69582 0 0 1 266.51172 438.32422 L 266.51172 311.36914 A 56.41611 56.389074 0 0 0 267.49414 311.19141 z "
     id="rect816" />
</svg>
