<?xml version="1.0" encoding="UTF-8" standalone="no"?>
<svg
   xmlns:dc="http://purl.org/dc/elements/1.1/"
   xmlns:cc="http://creativecommons.org/ns#"
   xmlns:rdf="http://www.w3.org/1999/02/22-rdf-syntax-ns#"
   xmlns:svg="http://www.w3.org/2000/svg"
   xmlns="http://www.w3.org/2000/svg"
   xmlns:sodipodi="http://sodipodi.sourceforge.net/DTD/sodipodi-0.dtd"
   xmlns:inkscape="http://www.inkscape.org/namespaces/inkscape"
   enable-background="new 0 0 64 64"
   height="512"
   id="Layer_1"
   version="1.1"
   viewBox="0 0 512 512"
   width="512"
   xml:space="preserve"
   sodipodi:docname="escritural.svg"
   inkscape:version="0.92.5 (2060ec1f9f, 2020-04-08)"><metadata
     id="metadata9"><rdf:RDF><cc:Work
         rdf:about=""><dc:format>image/svg+xml</dc:format><dc:type
           rdf:resource="http://purl.org/dc/dcmitype/StillImage" /><dc:title></dc:title></cc:Work></rdf:RDF></metadata><defs
     id="defs7" /><sodipodi:namedview
     pagecolor="#ffffff"
     bordercolor="#666666"
     borderopacity="1"
     objecttolerance="10"
     gridtolerance="10"
     guidetolerance="10"
     inkscape:pageopacity="0"
     inkscape:pageshadow="2"
     inkscape:window-width="1864"
     inkscape:window-height="1016"
     id="namedview5"
     showgrid="false"
     inkscape:zoom="0.22457304"
     inkscape:cx="454.0824"
     inkscape:cy="598.77793"
     inkscape:window-x="56"
     inkscape:window-y="27"
     inkscape:window-maximized="1"
     inkscape:current-layer="Layer_1" /><path
     style="fill:#000000;stroke-width:9.09597397"
     d="M 30.103516 0 C 24.190092 0 19.398438 6.1746219 19.398438 13.794922 L 19.398438 84.267578 C 19.398438 96.606688 14.198849 99.085027 11.009766 99.498047 L 8.6386719 99.498047 C 6.0425343 99.704527 -5.9211895e-16 101.64518 0 115.9668 L 0 451.84961 C 0 460.08945 5.1839344 466.75977 11.578125 466.75977 L 165.56836 466.75977 C 214.69466 466.75977 236.10521 490.6322 242.52344 499.79102 L 246.18359 505.63477 L 246.19141 505.63477 C 246.19141 505.63477 256.01665 519.9564 266.36914 505.63477 L 268.51562 502.39258 L 268.51562 502.40234 L 268.54883 502.37109 L 271.28906 498.24219 C 271.36916 498.11828 272.025 497.16793 272.97852 495.9082 C 281.17558 485.63422 301.66467 466.75977 341.72852 466.75977 L 500.42188 466.75977 C 506.82407 466.75977 512 460.08945 512 451.84961 L 512 112.71484 C 512 100.57192 505.18062 99.559997 503.3457 99.498047 L 502.88867 99.498047 C 494.10667 99.570347 492.74599 89.739701 492.59375 85.175781 L 492.59375 13.794922 C 492.59375 6.1746219 487.8017 -1.1842379e-15 481.9043 0 L 323.53125 0 C 283.79592 0 268.97279 18.977677 265.29492 24.935547 L 264.28516 26.744141 L 264.27734 26.773438 L 261.14453 32.308594 L 261.13672 32.308594 C 256.93001 39.753364 253.26672 36.583324 251.50391 34.146484 L 245.51172 24.513672 L 242.54688 19.908203 C 237.56294 13.165583 224.57316 0 198.82812 0 L 30.103516 0 z M 322.57031 29.263672 L 459.12305 29.263672 C 464.45955 29.263672 468.74609 34.612313 468.74609 41.220703 L 468.74609 399.14648 C 468.74609 405.7652 464.45955 411.10352 459.12305 411.10352 L 328.55469 411.10352 C 282.08863 411.10352 265.22266 438.15625 265.22266 438.15625 L 263.08398 441.85352 L 262.08203 443.64062 L 262.07422 443.64062 C 257.64316 451.39515 251.12776 443.70146 251.0957 443.66016 L 248.0918 438.81836 C 245.86425 435.3696 228.79606 411.09375 187.49023 411.09375 L 52.876953 411.09375 C 47.564486 411.09375 43.269531 405.74511 43.269531 399.13672 L 43.269531 41.230469 C 43.269531 34.622079 47.564486 29.273438 52.876953 29.273438 L 157.38672 29.273438 C 235.12661 29.273438 242.49129 86.177684 242.99609 102.70898 L 242.99609 351.61719 C 242.99609 369.70765 249.68497 373.10593 253.45898 373.60156 L 259.07617 373.60156 C 262.9223 373.10593 269.03711 370.16199 269.03711 356.04688 L 269.03711 99.498047 L 268.97266 99.498047 C 269.54957 78.795197 275.81579 29.263672 322.57031 29.263672 z M 64.441406 73.152344 L 64.441406 82.916016 L 205.45703 82.916016 L 205.45703 73.152344 L 64.441406 73.152344 z M 306.54297 73.152344 L 306.54297 82.916016 L 447.55859 82.916016 L 447.55859 73.152344 L 306.54297 73.152344 z M 64.441406 113.15234 L 64.441406 122.91602 L 219.55859 122.91602 L 219.55859 113.15234 L 64.441406 113.15234 z M 292.44141 113.15234 L 292.44141 122.91602 L 447.55859 122.91602 L 447.55859 113.15234 L 292.44141 113.15234 z M 64.441406 153.15234 L 64.441406 162.91602 L 219.55859 162.91602 L 219.55859 153.15234 L 64.441406 153.15234 z M 292.44141 153.15234 L 292.44141 162.91602 L 447.55859 162.91602 L 447.55859 153.15234 L 292.44141 153.15234 z M 64.441406 193.15234 L 64.441406 202.91602 L 219.55859 202.91602 L 219.55859 193.15234 L 64.441406 193.15234 z M 292.44141 193.15234 L 292.44141 202.91602 L 447.55859 202.91602 L 447.55859 193.15234 L 292.44141 193.15234 z M 64.441406 233.15234 L 64.441406 242.91602 L 219.55859 242.91602 L 219.55859 233.15234 L 64.441406 233.15234 z M 292.44141 233.15234 L 292.44141 242.91602 L 447.55859 242.91602 L 447.55859 233.15234 L 292.44141 233.15234 z M 64.441406 273.15234 L 64.441406 282.91602 L 219.55859 282.91602 L 219.55859 273.15234 L 64.441406 273.15234 z M 292.44141 273.15234 L 292.44141 282.91602 L 447.55859 282.91602 L 447.55859 273.15234 L 292.44141 273.15234 z M 64.441406 313.15234 L 64.441406 322.91602 L 219.55859 322.91602 L 219.55859 313.15234 L 64.441406 313.15234 z M 292.44141 313.15234 L 292.44141 322.91602 L 447.55859 322.91602 L 447.55859 313.15234 L 292.44141 313.15234 z M 64.441406 353.15234 L 64.441406 362.91602 L 219.55859 362.91602 L 219.55859 353.15234 L 64.441406 353.15234 z M 292.44141 353.15234 L 292.44141 362.91602 L 447.55859 362.91602 L 447.55859 353.15234 L 292.44141 353.15234 z "
     id="path2" /></svg>