<?xml version="1.0" encoding="UTF-8" standalone="no"?>
<svg
   xmlns:dc="http://purl.org/dc/elements/1.1/"
   xmlns:cc="http://creativecommons.org/ns#"
   xmlns:rdf="http://www.w3.org/1999/02/22-rdf-syntax-ns#"
   xmlns:svg="http://www.w3.org/2000/svg"
   xmlns="http://www.w3.org/2000/svg"
   xmlns:sodipodi="http://sodipodi.sourceforge.net/DTD/sodipodi-0.dtd"
   xmlns:inkscape="http://www.inkscape.org/namespaces/inkscape"
   id="Layer_1"
   version="1.1"
   viewBox="0 0 512 512"
   xml:space="preserve"
   sodipodi:docname="teorico.svg"
   width="512"
   height="512"
   inkscape:version="0.92.5 (2060ec1f9f, 2020-04-08)"><metadata
     id="metadata13"><rdf:RDF><cc:Work
         rdf:about=""><dc:format>image/svg+xml</dc:format><dc:type
           rdf:resource="http://purl.org/dc/dcmitype/StillImage" /><dc:title /></cc:Work></rdf:RDF></metadata><defs
     id="defs11" /><sodipodi:namedview
     pagecolor="#ffffff"
     bordercolor="#666666"
     borderopacity="1"
     objecttolerance="10"
     gridtolerance="10"
     guidetolerance="10"
     inkscape:pageopacity="0"
     inkscape:pageshadow="2"
     inkscape:window-width="1864"
     inkscape:window-height="1016"
     id="namedview9"
     showgrid="false"
     inkscape:zoom="0.59"
     inkscape:cx="-285.38136"
     inkscape:cy="55.337535"
     inkscape:window-x="56"
     inkscape:window-y="27"
     inkscape:window-maximized="1"
     inkscape:current-layer="Layer_1" /><path
     style="stroke:none;stroke-width:8.84603024;stroke-miterlimit:4;stroke-dasharray:none"
     d="m 190.20854,0 c -27.96406,0 -51.40341,18.845296 -58.19518,44.586841 -1.63577,-0.157892 -3.30041,-0.431931 -4.90835,-0.431931 -0.52006,0 -0.67751,0.02423 -0.69925,0.03072 -0.0264,-0.0067 -0.17497,-0.03072 -0.6973,-0.03072 -0.76836,0 -1.38916,0.08382 -1.89907,0.163175 -30.212945,1.698446 -54.334723,26.439024 -54.334723,56.619495 0,1.83956 0.336402,3.71085 0.541477,5.56903 -25.67704,5.73038 -44.979632,28.21133 -44.979632,55.18356 0,2.67543 0.299781,5.38949 0.751836,8.13375 C 9.5476794,183.77454 0,203.94892 0,225.46629 c 0,17.99462 6.9027801,35.25493 19.05494,48.71035 -12.0424916,15.10585 -18.6946042,33.53915 -18.6946042,52.71674 0,27.1934 12.8746402,52.10997 34.6487092,68.41026 -1.561429,6.41464 -2.336646,12.90438 -1.908804,19.38893 1.180957,17.86143 9.390362,34.28238 23.040057,46.08612 13.658761,11.81157 31.303609,17.6599 49.348462,16.52666 h 0.002 0.004 c 1.87337,-0.11989 3.7803,-0.48624 5.67773,-0.79092 C 124.74979,498.31365 148.82203,512 175.31613,512 c 41.536,0 75.40365,-33.36808 75.40365,-74.30756 V 59.637252 C 250.71978,26.790277 223.53351,0 190.2087,0 Z M 321.79146,0 C 288.46665,0 261.28038,26.790277 261.28038,59.637252 V 437.69244 c 0,40.93948 33.86765,74.30756 75.40365,74.30756 26.4941,0 50.56634,-13.68635 64.14364,-35.48557 1.89743,0.30468 3.80437,0.67103 5.67773,0.79092 h 0.004 0.002 c 18.04485,1.13324 35.68969,-4.71509 49.34846,-16.52666 13.6497,-11.80374 21.8591,-28.22469 23.04006,-46.08612 0.42784,-6.48455 -0.34738,-12.97429 -1.90881,-19.38893 21.77407,-16.30029 34.64871,-41.21686 34.64871,-68.41026 0,-19.17759 -6.65212,-37.61089 -18.6946,-52.71674 12.15216,-13.45542 19.05494,-30.71573 19.05494,-48.71035 0,-21.51737 -9.54768,-41.69175 -25.78835,-55.64237 0.45205,-2.74426 0.75184,-5.45832 0.75184,-8.13375 0,-26.97223 -19.3026,-49.45318 -44.97964,-55.18356 0.20508,-1.85818 0.54148,-3.72947 0.54148,-5.56903 0,-30.180471 -24.12177,-54.921049 -54.33472,-56.619495 -0.50991,-0.07936 -1.13071,-0.163175 -1.89907,-0.163175 -0.52233,0 -0.67091,0.02407 -0.6973,0.03072 -0.0217,-0.0065 -0.17919,-0.03072 -0.69924,-0.03072 -1.60795,0 -3.2726,0.274039 -4.90837,0.431931 C 373.19486,18.845296 349.75551,0 321.79146,0 Z M 190.21439,25.992674 c 18.86596,0 34.14035,15.058351 34.14035,33.650338 V 437.6982 c 0,26.6843 -21.95459,48.32064 -49.03292,48.32064 -19.74826,2e-5 -37.44353,-11.54528 -45.16273,-29.4654 l -0.002,-0.002 v -0.004 c -2.66284,-6.16034 -9.75625,-9.35519 -16.2268,-7.26988 -3.96397,1.26555 -7.1389,1.90291 -10.15757,2.09822 h -0.002 c -11.124369,0.72705 -21.837694,-2.85465 -30.242874,-10.12447 v -0.002 C 65.121699,433.98407 60.138494,424.01378 59.410588,413.01475 v -0.002 c -0.367647,-5.53662 0.564718,-11.20475 2.750239,-16.92595 6.307916,-16.14828 22.381408,-27.04274 39.960253,-27.04274 7.22901,0 13.18439,-5.86764 13.18439,-12.9925 0,-7.12486 -5.95538,-12.99442 -13.18439,-12.99442 -22.239498,0 -42.750642,10.79489 -55.60077,27.93924 -12.559179,-11.3319 -19.802881,-26.99585 -19.802881,-44.09148 0,-13.79934 4.971149,-27.03301 14.023876,-37.82568 10.317613,5.30071 21.956828,8.48122 34.38771,8.48122 41.320715,0 75.008255,-33.19637 75.008255,-73.91787 0,-7.12772 -5.95896,-12.99441 -13.18439,-12.99441 -7.22542,0 -13.18439,5.86669 -13.18439,12.99441 0,26.46584 -21.78284,47.93096 -48.639475,47.93096 -26.856631,0 -48.631682,-21.46454 -48.631682,-47.93096 0,-0.0645 6.9e-5,0.0482 0,-0.006 0.589476,-15.28761 8.429715,-29.35818 21.38641,-37.95621 v 0.002 c 4.844268,-3.21141 6.972227,-9.23995 5.198572,-14.72215 -0.001,-0.002 -0.0013,-0.004 -0.0019,-0.006 -4.09e-4,-9.8e-4 3.99e-4,-0.003 0,-0.004 -1.173518,-3.64626 -1.663388,-6.51564 -1.663388,-9.26638 0,-16.97699 13.917682,-30.71714 31.129108,-30.78614 0.787391,0.1057 1.479616,0.19838 2.107477,0.23996 h 0.0078 0.0078 c 4.220545,0.2653 8.315409,-1.49192 10.989265,-4.65911 2.538872,-3.0073 3.493632,-6.97617 2.738552,-10.79251 0.006,-0.12314 0.0223,-0.26839 0.0253,-0.38203 v -0.0173 -0.0173 c 0.0262,-1.50504 -0.21089,-3.01494 -0.71287,-4.45562 -1.281033,-3.67769 -1.846487,-6.86022 -1.846487,-9.87683 0,-16.782381 13.616598,-30.379357 30.556468,-30.751596 16.93896,0.373249 30.55452,13.969197 30.55452,30.757356 0,7.12772 5.96091,12.99249 13.18634,12.99249 7.22544,2e-5 13.18439,-5.86477 13.18439,-12.99249 0,-19.902071 -10.55565,-37.355158 -26.3532,-47.4875 2.95906,-15.748292 16.57556,-27.46316 33.22295,-27.46316 z m 131.57122,0 c 16.64739,0 30.26389,11.714867 33.22295,27.46316 -15.79755,10.132341 -26.3532,27.585429 -26.3532,47.487506 0,7.12772 5.95895,12.99251 13.18439,12.99249 7.22543,0 13.18634,-5.86477 13.18634,-12.99249 0,-16.788165 13.61556,-30.384113 30.55452,-30.757362 16.93987,0.372238 30.55646,13.969214 30.55646,30.751602 0,3.0166 -0.56545,6.19914 -1.84648,9.87682 -0.50198,1.44069 -0.73906,2.95058 -0.71287,4.45562 v 0.0173 0.0173 c 0.003,0.11364 0.0193,0.25889 0.0253,0.38203 -0.75508,3.81634 0.19968,7.78522 2.73854,10.79252 2.67386,3.16718 6.76872,4.9244 10.98927,4.6591 h 0.008 0.008 c 0.62787,-0.0416 1.32009,-0.13426 2.10748,-0.23996 17.21143,0.069 31.1291,13.80916 31.1291,30.78615 0,2.75074 -0.48987,5.62011 -1.66338,9.26637 -4e-4,9.9e-4 4e-4,0.003 0,0.004 -6.9e-4,0.002 -9e-4,0.004 -0.002,0.006 -1.77365,5.4822 0.35431,11.51074 5.19857,14.72215 v -0.002 c 12.9567,8.59804 20.79693,22.6686 21.38641,37.95621 -7e-5,0.054 0,-0.0587 0,0.006 0,26.46642 -21.77505,47.93095 -48.63168,47.93095 -26.85663,0 -48.63947,-21.46512 -48.63947,-47.93095 0,-7.12773 -5.95897,-12.99442 -13.18439,-12.99442 -7.22543,0 -13.18439,5.86669 -13.18439,12.99442 0,40.72149 33.68754,73.91786 75.00825,73.91786 12.43088,0 24.0701,-3.18051 34.38771,-8.48121 9.05273,10.79266 14.02388,24.02633 14.02388,37.82568 0,17.09562 -7.2437,32.75957 -19.80288,44.09155 -12.85013,-17.14434 -33.36128,-27.93924 -55.60078,-27.93924 -7.22901,0 -13.18438,5.86957 -13.18438,12.99442 0,7.12486 5.95537,12.9925 13.18438,12.9925 17.57885,0 33.65235,10.89446 39.96027,27.04275 2.18552,5.7212 3.11788,11.38932 2.75023,16.92595 v 0.002 c -0.7279,10.99903 -5.71111,20.96932 -14.11737,28.23489 v 0.002 c -8.40518,7.26981 -19.1185,10.85152 -30.24287,10.12447 h -0.002 c -3.01867,-0.19532 -6.19359,-0.83267 -10.15756,-2.09822 -6.47055,-2.08531 -13.56396,1.10954 -16.2268,7.26988 v 0.004 l -0.002,0.002 c -7.7192,17.92012 -25.41447,29.46542 -45.16272,29.4654 -27.07834,0 -49.03293,-21.63634 -49.03293,-48.32064 V 59.643012 c 0,-18.591987 15.27439,-33.650338 34.14035,-33.650338 z"
     id="path2"
     inkscape:connector-curvature="0" /></svg>